<svg width="192" height="192" viewBox="0 0 192 192" fill="none" xmlns="http://www.w3.org/2000/svg">
<rect width="192" height="192" rx="96" fill="url(#paint0_linear_2360_5)"/>
<mask id="path-2-outside-1_2360_5" maskUnits="userSpaceOnUse" x="49" y="58" width="94" height="88" fill="black">
<rect fill="white" x="49" y="58" width="94" height="88"/>
<path fill-rule="evenodd" clip-rule="evenodd" d="M130.4 123.806C125.833 128.373 118.482 128.373 103.78 128.373L103.778 128.373L103.78 128.374C98.9601 128.374 93.6532 130.32 88.8052 132.837L88.8031 132.838C81.0179 136.881 77.1251 138.902 75.2068 137.614C73.6067 136.539 73.5937 133.583 74.0547 127.996L72.5934 127.978C67.5251 127.479 64.1135 126.352 61.5672 123.806C57 119.239 57 111.888 57 97.1866C57 82.4851 57 75.1344 61.5672 70.5672C66.1344 66 73.4852 66 88.1869 66H103.78C118.482 66 125.833 66 130.4 70.5672C134.967 75.1344 134.967 82.4851 134.967 97.1866C134.967 111.888 134.967 119.239 130.4 123.806Z"/>
</mask>
<path d="M103.78 128.373L103.685 135.484L103.733 135.484H103.78V128.373ZM130.4 123.806L125.372 118.777L125.371 118.778L130.4 123.806ZM103.778 128.373L103.873 121.263L102.379 135.345L103.778 128.373ZM103.78 128.374V135.485L105.179 121.402L103.78 128.374ZM88.8052 132.837L85.528 126.526L85.5197 126.531L85.5113 126.535L88.8052 132.837ZM88.8031 132.838L92.0799 139.15L92.0885 139.145L92.097 139.141L88.8031 132.838ZM75.2068 137.614L71.2424 143.517L71.2432 143.518L75.2068 137.614ZM74.0547 127.996L81.1417 128.581L81.7689 120.982L74.1449 120.886L74.0547 127.996ZM72.5934 127.978L71.8972 135.055L72.1995 135.084L72.5032 135.088L72.5934 127.978ZM61.5672 123.806L66.5955 118.778L66.5953 118.778L61.5672 123.806ZM61.5672 70.5672L56.5389 65.5388L56.5389 65.5389L61.5672 70.5672ZM130.4 70.5672L125.371 75.5953L125.372 75.5955L130.4 70.5672ZM103.78 135.484C110.93 135.484 117.008 135.499 121.838 134.85C126.873 134.173 131.603 132.659 135.428 128.834L125.371 118.778C124.629 119.52 123.401 120.29 119.943 120.755C116.281 121.247 111.332 121.262 103.78 121.262V135.484ZM103.683 135.484L103.685 135.484L103.876 121.263L103.873 121.263L103.683 135.484ZM102.379 135.345L102.382 135.346L105.179 121.402L105.176 121.401L102.379 135.345ZM103.78 121.263C97.2583 121.263 90.7332 123.823 85.528 126.526L92.0824 139.148C96.5733 136.816 100.662 135.485 103.78 135.485V121.263ZM85.5113 126.535L85.5092 126.536L92.097 139.141L92.0992 139.14L85.5113 126.535ZM85.5263 126.527C81.4703 128.633 78.9661 129.922 77.229 130.597C76.3751 130.929 76.1747 130.919 76.3761 130.9C76.6707 130.872 77.8699 130.837 79.1704 131.71L71.2432 143.518C73.5028 145.035 75.908 145.23 77.7153 145.059C79.4295 144.897 81.0485 144.371 82.3807 143.853C85.0159 142.829 88.3507 141.086 92.0799 139.15L85.5263 126.527ZM79.1712 131.711C80.117 132.346 80.6149 133.152 80.8319 133.663C81.0075 134.077 80.9747 134.231 80.9386 133.841C80.9051 133.48 80.8885 132.889 80.9217 131.959C80.9545 131.044 81.0296 129.94 81.1417 128.581L66.9678 127.411C66.7425 130.141 66.5657 132.872 66.7771 135.153C66.972 137.257 67.6666 141.116 71.2424 143.517L79.1712 131.711ZM72.5032 135.088L73.9645 135.107L74.1449 120.886L72.6836 120.867L72.5032 135.088ZM56.5389 128.834C60.8083 133.104 66.2058 134.495 71.8972 135.055L73.2896 120.901C68.8445 120.463 67.4188 119.601 66.5955 118.778L56.5389 128.834ZM49.8889 97.1866C49.8889 104.336 49.8738 110.414 50.5232 115.244C51.2001 120.279 52.7138 125.009 56.5391 128.834L66.5953 118.778C65.8534 118.036 65.0835 116.807 64.6186 113.349C64.1262 109.687 64.1111 104.738 64.1111 97.1866H49.8889ZM56.5389 65.5389C52.7139 69.3639 51.2002 74.0942 50.5232 79.129C49.8738 83.9592 49.8889 90.0369 49.8889 97.1866H64.1111C64.1111 89.6348 64.1262 84.6864 64.6186 81.0241C65.0835 77.5663 65.8533 76.3376 66.5955 75.5955L56.5389 65.5389ZM88.1869 58.8889C81.0371 58.8889 74.9594 58.8738 70.1291 59.5232C65.0943 60.2001 60.364 61.7138 56.5389 65.5388L66.5955 75.5955C67.3376 74.8533 68.5664 74.0834 72.0242 73.6186C75.6865 73.1262 80.635 73.1111 88.1869 73.1111V58.8889ZM103.78 58.8889H88.1869V73.1111H103.78V58.8889ZM135.428 65.539C131.603 61.7138 126.873 60.2001 121.838 59.5232C117.008 58.8738 110.93 58.8889 103.78 58.8889V73.1111C111.332 73.1111 116.281 73.1262 119.943 73.6186C123.401 74.0835 124.63 74.8534 125.371 75.5953L135.428 65.539ZM142.078 97.1866C142.078 90.0369 142.093 83.9592 141.444 79.129C140.767 74.0941 139.253 69.3639 135.428 65.5388L125.372 75.5955C126.114 76.3377 126.884 77.5664 127.349 81.0241C127.841 84.6864 127.856 89.6348 127.856 97.1866H142.078ZM135.428 128.835C139.253 125.01 140.767 120.279 141.444 115.244C142.093 110.414 142.078 104.336 142.078 97.1866H127.856C127.856 104.738 127.841 109.687 127.349 113.349C126.884 116.807 126.114 118.036 125.372 118.777L135.428 128.835Z" fill="#EBEFFF" mask="url(#path-2-outside-1_2360_5)"/>
<path opacity="0.48" fill-rule="evenodd" clip-rule="evenodd" d="M130.4 123.806C125.833 128.373 118.482 128.373 103.78 128.373L103.778 128.373L103.78 128.374C98.9601 128.374 93.6532 130.32 88.8052 132.837L88.8031 132.838C81.0179 136.881 77.1251 138.902 75.2068 137.614C73.6067 136.539 73.5937 133.583 74.0547 127.996L72.5934 127.978C67.5251 127.479 64.1135 126.352 61.5672 123.806C57 119.239 57 111.888 57 97.1866C57 82.4851 57 75.1344 61.5672 70.5672C66.1344 66 73.4852 66 88.1869 66H103.78C118.482 66 125.833 66 130.4 70.5672C134.967 75.1344 134.967 82.4851 134.967 97.1866C134.967 111.888 134.967 119.239 130.4 123.806Z" fill="#EBEFFF"/>
<defs>
<linearGradient id="paint0_linear_2360_5" x1="96" y1="0" x2="96" y2="192" gradientUnits="userSpaceOnUse">
<stop stop-color="#0866FF"/>
<stop offset="1" stop-color="#0042AD"/>
</linearGradient>
</defs>
</svg>
