<svg width="192" height="192" viewBox="0 0 192 192" fill="none" xmlns="http://www.w3.org/2000/svg">
<rect width="192" height="192" rx="48" fill="#282828"/>
<path opacity="0.2" d="M96 45C85.9131 45 76.0528 47.9911 67.6659 53.595C59.279 59.199 52.7422 67.1641 48.8821 76.4831C45.0221 85.8022 44.0121 96.0566 45.9799 105.95C47.9478 115.843 52.8051 124.93 59.9375 132.062C67.07 139.195 76.1574 144.052 86.0504 146.02C95.9434 147.988 106.198 146.978 115.517 143.118C124.836 139.258 132.801 132.721 138.405 124.334C144.009 115.947 147 106.087 147 96C147 82.474 141.627 69.5019 132.062 59.9376C122.498 50.3732 109.526 45 96 45ZM85.375 117.25V74.75L119.375 96L85.375 117.25Z" fill="white"/>
<path d="M96 40.75C85.0726 40.75 74.3906 43.9904 65.3047 50.0613C56.2189 56.1323 49.1374 64.7611 44.9557 74.8567C40.7739 84.9524 39.6798 96.0613 41.8116 106.779C43.9434 117.496 49.2055 127.341 56.9323 135.068C64.6592 142.795 74.5038 148.057 85.2213 150.188C95.9387 152.32 107.048 151.226 117.143 147.044C127.239 142.863 135.868 135.781 141.939 126.695C148.01 117.609 151.25 106.927 151.25 96C151.235 81.3515 145.409 67.3075 135.051 56.9494C124.693 46.5914 110.648 40.7655 96 40.75ZM96 142.75C86.7537 142.75 77.7151 140.008 70.0271 134.871C62.3391 129.734 56.347 122.433 52.8086 113.89C49.2702 105.348 48.3444 95.9481 50.1483 86.8795C51.9521 77.8109 56.4046 69.4809 62.9428 62.9428C69.4809 56.4047 77.8109 51.9521 86.8795 50.1483C95.9481 48.3444 105.348 49.2702 113.89 52.8086C122.433 56.347 129.734 62.3391 134.871 70.0271C140.008 77.7151 142.75 86.7537 142.75 96C142.736 108.395 137.806 120.277 129.042 129.042C120.277 137.806 108.395 142.736 96 142.75ZM121.627 92.3981L87.6275 71.1481C86.9843 70.7461 86.2453 70.5236 85.4871 70.5036C84.7289 70.4836 83.9791 70.6669 83.3157 71.0344C82.6522 71.4019 82.0991 71.9403 81.7139 72.5936C81.3287 73.247 81.1254 73.9915 81.125 74.75V117.25C81.1254 118.008 81.3287 118.753 81.7139 119.406C82.0991 120.06 82.6522 120.598 83.3157 120.966C83.9791 121.333 84.7289 121.516 85.4871 121.496C86.2453 121.476 86.9843 121.254 87.6275 120.852L121.627 99.6019C122.238 99.2196 122.741 98.6886 123.09 98.0585C123.439 97.4285 123.622 96.7201 123.622 96C123.622 95.2799 123.439 94.5715 123.09 93.9415C122.741 93.3114 122.238 92.7804 121.627 92.3981ZM89.625 109.584V82.4159L111.358 96L89.625 109.584Z" fill="white"/>
</svg>
