<svg width="192" height="192" viewBox="0 0 192 192" fill="none" xmlns="http://www.w3.org/2000/svg">
<rect width="192" height="192" rx="48" fill="url(#paint0_linear_2375_55)"/>
<path opacity="0.1" fill-rule="evenodd" clip-rule="evenodd" d="M49.3431 53.3431C47 55.6863 47 59.4575 47 67V91C47 98.5425 47 102.314 49.3431 104.657C51.6863 107 55.4575 107 63 107H79C86.5425 107 90.3137 107 92.6569 104.657C95 102.314 95 98.5425 95 91V67C95 59.4575 95 55.6863 92.6569 53.3431C90.3137 51 86.5425 51 79 51H63C55.4575 51 51.6863 51 49.3431 53.3431ZM152.657 148.657C155 146.314 155 142.542 155 135V111C155 103.458 155 99.6863 152.657 97.3431C150.314 95 146.542 95 139 95L123 95C115.458 95 111.686 95 109.343 97.3431C107 99.6863 107 103.458 107 111L107 135C107 142.542 107 146.314 109.343 148.657C111.686 151 115.458 151 123 151H139C146.542 151 150.314 151 152.657 148.657ZM107 67C107 59.4575 107 55.6863 109.343 53.3431C111.686 51 115.458 51 123 51H139C146.542 51 150.314 51 152.657 53.3431C155 55.6863 155 59.4575 155 67C155 74.5425 155 78.3137 152.657 80.6569C150.314 83 146.542 83 139 83H123C115.458 83 111.686 83 109.343 80.6569C107 78.3137 107 74.5425 107 67ZM92.6569 148.657C95 146.314 95 142.542 95 135C95 127.458 95 123.686 92.6569 121.343C90.3137 119 86.5425 119 79 119H63C55.4575 119 51.6863 119 49.3431 121.343C47 123.686 47 127.458 47 135C47 142.542 47 146.314 49.3431 148.657C51.6863 151 55.4575 151 63 151H79C86.5425 151 90.3137 151 92.6569 148.657Z" fill="url(#paint1_linear_2375_55)"/>
<path opacity="0.2" fill-rule="evenodd" clip-rule="evenodd" d="M47.3431 51.3431C45 53.6863 45 57.4575 45 65V89C45 96.5425 45 100.314 47.3431 102.657C49.6863 105 53.4575 105 61 105H77C84.5425 105 88.3137 105 90.6569 102.657C93 100.314 93 96.5425 93 89V65C93 57.4575 93 53.6863 90.6569 51.3431C88.3137 49 84.5425 49 77 49H61C53.4575 49 49.6863 49 47.3431 51.3431ZM150.657 146.657C153 144.314 153 140.542 153 133V109C153 101.458 153 97.6863 150.657 95.3431C148.314 93 144.542 93 137 93L121 93C113.458 93 109.686 93 107.343 95.3431C105 97.6863 105 101.458 105 109L105 133C105 140.542 105 144.314 107.343 146.657C109.686 149 113.458 149 121 149H137C144.542 149 148.314 149 150.657 146.657ZM105 65C105 57.4575 105 53.6863 107.343 51.3431C109.686 49 113.458 49 121 49H137C144.542 49 148.314 49 150.657 51.3431C153 53.6863 153 57.4575 153 65C153 72.5425 153 76.3137 150.657 78.6569C148.314 81 144.542 81 137 81H121C113.458 81 109.686 81 107.343 78.6569C105 76.3137 105 72.5425 105 65ZM90.6569 146.657C93 144.314 93 140.542 93 133C93 125.458 93 121.686 90.6569 119.343C88.3137 117 84.5425 117 77 117H61C53.4575 117 49.6863 117 47.3431 119.343C45 121.686 45 125.458 45 133C45 140.542 45 144.314 47.3431 146.657C49.6863 149 53.4575 149 61 149H77C84.5425 149 88.3137 149 90.6569 146.657Z" fill="url(#paint2_linear_2375_55)"/>
<path fill-rule="evenodd" clip-rule="evenodd" d="M44.3431 48.3431C42 50.6863 42 54.4575 42 62V86C42 93.5425 42 97.3137 44.3431 99.6569C46.6863 102 50.4575 102 58 102H74C81.5425 102 85.3137 102 87.6569 99.6569C90 97.3137 90 93.5425 90 86V62C90 54.4575 90 50.6863 87.6569 48.3431C85.3137 46 81.5425 46 74 46H58C50.4575 46 46.6863 46 44.3431 48.3431ZM147.657 143.657C150 141.314 150 137.542 150 130V106C150 98.4575 150 94.6863 147.657 92.3431C145.314 90 141.542 90 134 90L118 90C110.458 90 106.686 90 104.343 92.3431C102 94.6863 102 98.4575 102 106L102 130C102 137.542 102 141.314 104.343 143.657C106.686 146 110.458 146 118 146H134C141.542 146 145.314 146 147.657 143.657ZM102 62C102 54.4575 102 50.6863 104.343 48.3431C106.686 46 110.458 46 118 46H134C141.542 46 145.314 46 147.657 48.3431C150 50.6863 150 54.4575 150 62C150 69.5425 150 73.3137 147.657 75.6569C145.314 78 141.542 78 134 78H118C110.458 78 106.686 78 104.343 75.6569C102 73.3137 102 69.5425 102 62ZM87.6569 143.657C90 141.314 90 137.542 90 130C90 122.458 90 118.686 87.6569 116.343C85.3137 114 81.5425 114 74 114H58C50.4575 114 46.6863 114 44.3431 116.343C42 118.686 42 122.458 42 130C42 137.542 42 141.314 44.3431 143.657C46.6863 146 50.4575 146 58 146H74C81.5425 146 85.3137 146 87.6569 143.657Z" fill="url(#paint3_linear_2375_55)"/>
<path d="M44.3431 99.6569L45.0503 98.9497L45.0503 98.9497L44.3431 99.6569ZM87.6569 99.6569L86.9497 98.9497L86.9497 98.9497L87.6569 99.6569ZM87.6569 48.3431L86.9497 49.0503L86.9497 49.0503L87.6569 48.3431ZM150 106L149 106V106H150ZM147.657 92.3431L146.95 93.0503L146.95 93.0503L147.657 92.3431ZM134 90L134 91H134V90ZM118 90L118 89H118V90ZM104.343 92.3431L105.05 93.0503L105.05 93.0502L104.343 92.3431ZM102 106L103 106V106H102ZM102 130L101 130V130H102ZM90 130L89 130V130H90ZM87.6569 143.657L86.9497 142.95L86.9497 142.95L87.6569 143.657ZM87.6569 116.343L86.9497 117.05L86.9497 117.05L87.6569 116.343ZM44.3431 116.343L43.636 115.636L43.636 115.636L44.3431 116.343ZM42 130L41 130V130H42ZM43 62C43 58.2005 43.0021 55.4515 43.284 53.3551C43.562 51.2875 44.0954 50.0051 45.0503 49.0503L43.636 47.636C42.2477 49.0244 41.6096 50.7992 41.3018 53.0886C40.9979 55.3492 41 58.257 41 62H43ZM43 86V62H41V86H43ZM45.0503 98.9497C44.0954 97.9949 43.562 96.7125 43.284 94.6449C43.0021 92.5485 43 89.7995 43 86H41C41 89.743 40.9979 92.6508 41.3018 94.9114C41.6096 97.2008 42.2477 98.9756 43.636 100.364L45.0503 98.9497ZM58 101C54.2005 101 51.4515 100.998 49.3551 100.716C47.2875 100.438 46.0051 99.9046 45.0503 98.9497L43.636 100.364C45.0244 101.752 46.7992 102.39 49.0886 102.698C51.3492 103.002 54.257 103 58 103V101ZM74 101H58V103H74V101ZM86.9497 98.9497C85.9949 99.9046 84.7125 100.438 82.6449 100.716C80.5485 100.998 77.7995 101 74 101V103C77.743 103 80.6508 103.002 82.9114 102.698C85.2008 102.39 86.9756 101.752 88.364 100.364L86.9497 98.9497ZM89 86C89 89.7995 88.9979 92.5485 88.716 94.6449C88.438 96.7125 87.9046 97.9949 86.9497 98.9497L88.364 100.364C89.7523 98.9756 90.3904 97.2008 90.6982 94.9114C91.0021 92.6508 91 89.743 91 86H89ZM89 62V86H91V62H89ZM86.9497 49.0503C87.9046 50.0051 88.438 51.2875 88.716 53.3551C88.9979 55.4515 89 58.2005 89 62H91C91 58.257 91.0021 55.3492 90.6982 53.0886C90.3904 50.7992 89.7523 49.0244 88.364 47.636L86.9497 49.0503ZM74 47C77.7995 47 80.5485 47.0021 82.6449 47.284C84.7125 47.562 85.9949 48.0954 86.9497 49.0503L88.364 47.636C86.9756 46.2477 85.2008 45.6096 82.9114 45.3018C80.6508 44.9979 77.743 45 74 45V47ZM58 47H74V45H58V47ZM45.0503 49.0503C46.0051 48.0954 47.2875 47.562 49.3551 47.284C51.4515 47.0021 54.2005 47 58 47V45C54.257 45 51.3492 44.9979 49.0886 45.3018C46.7992 45.6096 45.0244 46.2477 43.636 47.636L45.0503 49.0503ZM149 130C149 133.8 148.998 136.549 148.716 138.645C148.438 140.713 147.905 141.995 146.95 142.95L148.364 144.364C149.752 142.976 150.39 141.201 150.698 138.911C151.002 136.651 151 133.743 151 130H149ZM149 106V130H151V106H149ZM146.95 93.0503C147.905 94.0051 148.438 95.2875 148.716 97.3551C148.998 99.4515 149 102.2 149 106L151 106C151 102.257 151.002 99.3492 150.698 97.0886C150.39 94.7992 149.752 93.0244 148.364 91.636L146.95 93.0503ZM134 91C137.8 91 140.549 91.0021 142.645 91.284C144.713 91.562 145.995 92.0954 146.95 93.0503L148.364 91.636C146.976 90.2477 145.201 89.6096 142.911 89.3018C140.651 88.9979 137.743 89 134 89V91ZM118 91L134 91L134 89L118 89L118 91ZM105.05 93.0502C106.005 92.0954 107.287 91.562 109.355 91.284C111.451 91.0021 114.201 91 118 91V89C114.257 89 111.349 88.9979 109.089 89.3018C106.799 89.6096 105.024 90.2477 103.636 91.636L105.05 93.0502ZM103 106C103 102.2 103.002 99.4515 103.284 97.3551C103.562 95.2874 104.095 94.0051 105.05 93.0503L103.636 91.636C102.248 93.0244 101.61 94.7992 101.302 97.0886C100.998 99.3492 101 102.257 101 106H103ZM103 130L103 106L101 106L101 130L103 130ZM105.05 142.95C104.095 141.995 103.562 140.713 103.284 138.645C103.002 136.549 103 133.799 103 130H101C101 133.743 100.998 136.651 101.302 138.911C101.61 141.201 102.248 142.976 103.636 144.364L105.05 142.95ZM118 145C114.2 145 111.451 144.998 109.355 144.716C107.287 144.438 106.005 143.905 105.05 142.95L103.636 144.364C105.024 145.752 106.799 146.39 109.089 146.698C111.349 147.002 114.257 147 118 147V145ZM134 145H118V147H134V145ZM146.95 142.95C145.995 143.905 144.713 144.438 142.645 144.716C140.549 144.998 137.8 145 134 145V147C137.743 147 140.651 147.002 142.911 146.698C145.201 146.39 146.976 145.752 148.364 144.364L146.95 142.95ZM103.636 47.636C102.248 49.0244 101.61 50.7992 101.302 53.0886C100.998 55.3492 101 58.257 101 62H103C103 58.2005 103.002 55.4515 103.284 53.3551C103.562 51.2875 104.095 50.0051 105.05 49.0503L103.636 47.636ZM118 45C114.257 45 111.349 44.9979 109.089 45.3018C106.799 45.6096 105.024 46.2477 103.636 47.636L105.05 49.0503C106.005 48.0954 107.287 47.562 109.355 47.284C111.451 47.0021 114.2 47 118 47V45ZM134 45H118V47H134V45ZM148.364 47.636C146.976 46.2477 145.201 45.6096 142.911 45.3018C140.651 44.9979 137.743 45 134 45V47C137.8 47 140.549 47.0021 142.645 47.284C144.713 47.562 145.995 48.0954 146.95 49.0503L148.364 47.636ZM151 62C151 58.257 151.002 55.3492 150.698 53.0886C150.39 50.7992 149.752 49.0244 148.364 47.636L146.95 49.0503C147.905 50.0051 148.438 51.2875 148.716 53.3551C148.998 55.4515 149 58.2005 149 62H151ZM148.364 76.364C149.752 74.9756 150.39 73.2008 150.698 70.9114C151.002 68.6508 151 65.743 151 62H149C149 65.7995 148.998 68.5485 148.716 70.6449C148.438 72.7126 147.905 73.9949 146.95 74.9497L148.364 76.364ZM134 79C137.743 79 140.651 79.0021 142.911 78.6982C145.201 78.3904 146.976 77.7523 148.364 76.364L146.95 74.9497C145.995 75.9046 144.713 76.438 142.645 76.716C140.549 76.9979 137.8 77 134 77V79ZM118 79H134V77H118V79ZM103.636 76.364C105.024 77.7523 106.799 78.3904 109.089 78.6982C111.349 79.0021 114.257 79 118 79V77C114.2 77 111.451 76.9979 109.355 76.716C107.287 76.438 106.005 75.9046 105.05 74.9497L103.636 76.364ZM101 62C101 65.743 100.998 68.6508 101.302 70.9114C101.61 73.2008 102.248 74.9756 103.636 76.364L105.05 74.9497C104.095 73.9949 103.562 72.7126 103.284 70.6449C103.002 68.5485 103 65.7995 103 62H101ZM89 130C89 133.8 88.9979 136.549 88.716 138.645C88.438 140.713 87.9046 141.995 86.9497 142.95L88.364 144.364C89.7523 142.976 90.3904 141.201 90.6982 138.911C91.0021 136.651 91 133.743 91 130H89ZM86.9497 117.05C87.9046 118.005 88.438 119.287 88.716 121.355C88.9979 123.451 89 126.2 89 130L91 130C91 126.257 91.0021 123.349 90.6982 121.089C90.3904 118.799 89.7523 117.024 88.364 115.636L86.9497 117.05ZM74 115C77.7995 115 80.5485 115.002 82.6449 115.284C84.7126 115.562 85.9949 116.095 86.9497 117.05L88.364 115.636C86.9756 114.248 85.2008 113.61 82.9114 113.302C80.6508 112.998 77.743 113 74 113V115ZM58 115H74V113H58V115ZM45.0503 117.05C46.0051 116.095 47.2875 115.562 49.3551 115.284C51.4515 115.002 54.2005 115 58 115V113C54.257 113 51.3492 112.998 49.0886 113.302C46.7992 113.61 45.0244 114.248 43.636 115.636L45.0503 117.05ZM43 130C43 126.2 43.0021 123.451 43.284 121.355C43.562 119.287 44.0955 118.005 45.0503 117.05L43.636 115.636C42.2477 117.024 41.6096 118.799 41.3018 121.089C40.9979 123.349 41 126.257 41 130L43 130ZM45.0503 142.95C44.0954 141.995 43.562 140.713 43.284 138.645C43.0021 136.549 43 133.799 43 130H41C41 133.743 40.9979 136.651 41.3018 138.911C41.6096 141.201 42.2477 142.976 43.636 144.364L45.0503 142.95ZM58 145C54.2005 145 51.4515 144.998 49.3551 144.716C47.2875 144.438 46.0051 143.905 45.0503 142.95L43.636 144.364C45.0244 145.752 46.7992 146.39 49.0886 146.698C51.3492 147.002 54.257 147 58 147V145ZM74 145H58V147H74V145ZM86.9497 142.95C85.9949 143.905 84.7125 144.438 82.6449 144.716C80.5485 144.998 77.7995 145 74 145V147C77.743 147 80.6508 147.002 82.9114 146.698C85.2008 146.39 86.9756 145.752 88.364 144.364L86.9497 142.95Z" fill="url(#paint4_linear_2375_55)"/>
<defs>
<linearGradient id="paint0_linear_2375_55" x1="0" y1="0" x2="192" y2="192" gradientUnits="userSpaceOnUse">
<stop stop-color="#E60023"/>
<stop offset="1" stop-color="#FF3657"/>
</linearGradient>
<linearGradient id="paint1_linear_2375_55" x1="151" y1="151" x2="51" y2="51" gradientUnits="userSpaceOnUse">
<stop stop-color="#F6D365"/>
<stop offset="1" stop-color="#FFF3CE"/>
</linearGradient>
<linearGradient id="paint2_linear_2375_55" x1="149" y1="149" x2="49" y2="49" gradientUnits="userSpaceOnUse">
<stop stop-color="#F6D365"/>
<stop offset="1" stop-color="#FFF3CE"/>
</linearGradient>
<linearGradient id="paint3_linear_2375_55" x1="146" y1="146" x2="46" y2="46" gradientUnits="userSpaceOnUse">
<stop stop-color="#F6D365"/>
<stop offset="1" stop-color="white"/>
</linearGradient>
<linearGradient id="paint4_linear_2375_55" x1="96" y1="46" x2="96" y2="146" gradientUnits="userSpaceOnUse">
<stop stop-color="white" stop-opacity="0.16"/>
<stop offset="1" stop-color="white" stop-opacity="0.32"/>
</linearGradient>
</defs>
</svg>
