<svg width="192" height="192" viewBox="0 0 192 192" fill="none" xmlns="http://www.w3.org/2000/svg">
<g clip-path="url(#clip0_2454_6)">
<path d="M91.0877 3.41682L91.0001 30.3608C90.9991 40.7898 90.9982 50.0066 91.9991 57.4358C93.0839 65.4885 95.5743 73.5401 102.158 80.1116C108.742 86.6822 116.808 89.168 124.876 90.2507C132.319 91.2498 141.552 91.2489 152.001 91.2479H190.594C190.712 92.7271 190.796 94.3032 190.855 96H191C191 93.4571 191 92.1862 190.906 90.689C190.367 82.1858 186.826 72.4416 181.776 65.5714C180.888 64.362 180.279 63.636 179.064 62.1839C171.516 53.1666 161.581 41.9337 152.905 34.211C145.183 27.3374 134.607 19.8172 125.382 13.6681C117.458 8.38515 113.495 5.74361 108.062 3.78033C106.622 3.25987 104.722 2.68495 103.234 2.31944C99.5772 1.42083 96.0172 1.10827 91.0001 1L91.0877 3.41682Z" fill="#79AAFF"/>
<path fill-rule="evenodd" clip-rule="evenodd" d="M76.8 192H115.2C151.404 192 169.506 192 180.753 180.753C192 169.506 192 151.404 192 115.2V111.004C192 102.625 192 96.3302 191.591 91.201H153.6H152.689C142.157 91.2019 132.85 91.2029 125.346 90.1939C117.214 89.1005 109.083 86.5901 102.447 79.9536C95.8109 73.3177 93.3005 65.1867 92.207 57.0543C91.1981 49.5517 91.199 40.2439 91.2 29.7117L91.2883 2.50147C91.2912 1.71005 91.3594 0.927264 91.488 0.159936C87.5654 -2.32458e-07 82.9037 0 77.0861 0C40.6914 0 22.4942 1.14441e-06 11.2471 11.2471C1.14441e-06 22.4942 0 40.5961 0 76.8V115.2C0 151.404 1.14441e-06 169.506 11.2471 180.753C22.4942 192 40.5961 192 76.8 192Z" fill="#0866FF"/>
<path d="M64.0444 163.672C60.5583 166.981 55.1336 166.981 51.6475 163.672L27.4797 140.729C23.8281 137.262 23.6431 131.454 27.0665 127.756C30.4898 124.06 36.2251 123.871 39.8767 127.338L48.783 135.793V95.7949C48.783 90.7266 52.8406 86.6177 57.8459 86.6177C62.8513 86.6177 66.9088 90.7266 66.9088 95.7949V135.793L75.8152 127.338C79.4664 123.871 85.2026 124.06 88.6259 127.756C92.0493 131.454 91.8632 137.262 88.2127 140.729L64.0444 163.672Z" fill="#EBEFFF" stroke="#EBEFFF" stroke-width="3.54098"/>
</g>
<defs>
<clipPath id="clip0_2454_6">
<rect width="192" height="192" rx="48" fill="white"/>
</clipPath>
</defs>
</svg>
