<svg width="192" height="192" viewBox="0 0 192 192" fill="none" xmlns="http://www.w3.org/2000/svg">
<path fill-rule="evenodd" clip-rule="evenodd" d="M80.4 174H111.6C141.015 174 155.724 174 164.862 164.862C174 155.724 174 141.015 174 111.6V108.191C174 101.383 174 96.2683 173.668 92.1008H142.8H142.06C133.502 92.1016 125.94 92.1023 119.844 91.2826C113.236 90.3941 106.63 88.3544 101.238 82.9623C95.8463 77.5706 93.8066 70.9642 92.9182 64.3567C92.0984 58.2608 92.0992 50.6981 92.1 42.1408L92.1718 20.0324C92.1741 19.3894 92.2295 18.7534 92.334 18.1299C89.1469 18 85.3592 18 80.6324 18C51.0618 18 36.2766 18 27.1382 27.1382C18 36.2766 18 50.9843 18 80.4V111.6C18 141.015 18 155.724 27.1382 164.862C36.2766 174 50.9843 174 80.4 174Z" fill="#0866FF"/>
<path d="M70.0362 150.984C67.2037 153.672 62.7961 153.672 59.9637 150.984L40.3274 132.342C37.3605 129.526 37.2101 124.806 39.9916 121.802C42.7731 118.798 47.433 118.645 50.3999 121.462L57.6363 128.332V95.8334C57.6363 91.7155 60.9331 88.377 64.9999 88.377C69.0668 88.377 72.3635 91.7155 72.3635 95.8334V128.332L79.6 121.462C82.5665 118.645 87.2272 118.798 90.0087 121.802C92.7902 124.806 92.639 129.526 89.6729 132.342L70.0362 150.984Z" fill="#EBEFFF" stroke="#EBEFFF" stroke-width="3.54098"/>
<path d="M92.1714 20.029L92.0997 42.1373C92.0989 50.6947 92.0981 58.2573 92.9179 64.3532C93.8063 70.9607 95.846 77.5672 101.238 82.9594C106.63 88.3507 113.236 90.3904 119.844 91.2789C125.94 92.0986 133.502 92.0979 142.059 92.0971H173.667C173.764 93.3108 173.833 94.604 173.881 95.9963H174C174 93.9098 174 92.8669 173.922 91.6384C173.481 84.6613 170.581 76.6659 166.445 71.0287C165.718 70.0363 165.219 69.4406 164.224 68.2492C158.042 60.8502 149.905 51.6332 142.8 45.2965C136.475 39.6565 127.814 33.486 120.258 28.4405C113.769 24.1056 110.523 21.9382 106.073 20.3272C104.894 19.9002 103.338 19.4284 102.12 19.1285C99.1243 18.3912 96.2087 18.1347 92.0997 18.0459L92.1714 20.029Z" fill="#79AAFF"/>
</svg>
