<svg width="192" height="192" viewBox="0 0 192 192" fill="none" xmlns="http://www.w3.org/2000/svg">
<path d="M0 96C0 50.7452 0 28.1177 14.0589 14.0589C28.1177 0 50.7452 0 96 0V0C141.255 0 163.882 0 177.941 14.0589C192 28.1177 192 50.7452 192 96V96C192 141.255 192 163.882 177.941 177.941C163.882 192 141.255 192 96 192V192C50.7452 192 28.1177 192 14.0589 177.941C0 163.882 0 141.255 0 96V96Z" fill="url(#paint0_linear_2385_6)"/>
<path d="M55 95.9992C55 73.3557 73.3565 55 96 55C118.643 55 137 73.3557 137 95.9992C137 118.643 118.643 137 96 137C73.3565 137 55 118.643 55 95.9992Z" fill="white" fill-opacity="0.4"/>
<path fill-rule="evenodd" clip-rule="evenodd" d="M96 36C62.8632 36 36 62.862 36 95.9988C36 129.136 62.8632 156 96 156C129.137 156 156 129.136 156 95.9988C156 62.862 129.137 36 96 36ZM55.2858 95.9993C55.2858 73.5136 73.5144 55.2859 96.0001 55.2859C118.486 55.2859 136.714 73.5136 136.714 95.9993C136.714 118.485 118.486 136.714 96.0001 136.714C73.5144 136.714 55.2858 118.485 55.2858 95.9993ZM73.267 96.5585C73.267 84.7239 82.861 75.1304 94.6956 75.1304C106.53 75.1304 116.124 84.7239 116.124 96.5585C116.124 108.393 106.53 117.988 94.6956 117.988C82.861 117.988 73.267 108.393 73.267 96.5585Z" fill="white"/>
<defs>
<linearGradient id="paint0_linear_2385_6" x1="2.3807e-05" y1="9.18777e-07" x2="192" y2="192" gradientUnits="userSpaceOnUse">
<stop stop-color="#F09433"/>
<stop offset="0.245192" stop-color="#E6683C"/>
<stop offset="0.480769" stop-color="#DC2743"/>
<stop offset="0.735577" stop-color="#CC2366"/>
<stop offset="1" stop-color="#BC1888"/>
</linearGradient>
</defs>
</svg>
