<svg width="192" height="192" viewBox="0 0 192 192" fill="none" xmlns="http://www.w3.org/2000/svg">
<path d="M0 96C0 50.7452 0 28.1177 14.0589 14.0589C28.1177 0 50.7452 0 96 0V0C141.255 0 163.882 0 177.941 14.0589C192 28.1177 192 50.7452 192 96V96C192 141.255 192 163.882 177.941 177.941C163.882 192 141.255 192 96 192V192C50.7452 192 28.1177 192 14.0589 177.941C0 163.882 0 141.255 0 96V96Z" fill="url(#paint0_linear_2349_2)"/>
<path d="M64.7857 95.9995C64.7857 78.7605 78.761 64.7859 96 64.7859C113.239 64.7859 127.214 78.7605 127.214 95.9995C127.214 113.239 113.239 127.214 96 127.214C78.761 127.214 64.7857 113.239 64.7857 95.9995Z" fill="white" fill-opacity="0.4"/>
<path fill-rule="evenodd" clip-rule="evenodd" d="M96 50C70.5951 50 50 70.5942 50 95.9991C50 121.404 70.5951 142 96 142C121.405 142 142 121.404 142 95.9991C142 70.5942 121.405 50 96 50ZM64.7857 95.9995C64.7857 78.7605 78.761 64.7859 96 64.7859C113.239 64.7859 127.214 78.7605 127.214 95.9995C127.214 113.239 113.239 127.214 96 127.214C78.761 127.214 64.7857 113.239 64.7857 95.9995ZM78.5714 96.4282C78.5714 87.3551 85.9268 80 95 80C104.073 80 111.429 87.3551 111.429 96.4282C111.429 105.501 104.073 112.857 95 112.857C85.9268 112.857 78.5714 105.501 78.5714 96.4282Z" fill="white"/>
<defs>
<linearGradient id="paint0_linear_2349_2" x1="2.3807e-05" y1="9.18777e-07" x2="192" y2="192" gradientUnits="userSpaceOnUse">
<stop stop-color="#F09433"/>
<stop offset="0.245192" stop-color="#E6683C"/>
<stop offset="0.480769" stop-color="#DC2743"/>
<stop offset="0.735577" stop-color="#CC2366"/>
<stop offset="1" stop-color="#BC1888"/>
</linearGradient>
</defs>
</svg>
