<svg width="192" height="192" viewBox="0 0 192 192" fill="none" xmlns="http://www.w3.org/2000/svg">
<rect width="192" height="192" rx="32" fill="#0866FF"/>
<path d="M134.897 110.99C131.058 107.856 125.391 108.451 122.288 112.329L108.018 130.167C99.4408 140.888 84.0903 143.271 72.6667 135.655C68.9452 133.175 63.9445 133.951 61.1504 137.444L61.0468 137.573L48.6791 151.906C45.4596 155.637 39.825 156.052 36.0939 152.832C32.3628 149.613 31.948 143.979 35.1674 140.247L47.3292 126.153C55.9277 115.553 71.1929 113.224 82.5662 120.806C86.2872 123.287 91.2886 122.511 94.0824 119.018L108.352 101.181C117.719 89.4729 134.875 87.74 146.393 97.3395L146.478 97.41L163.805 112.597C167.512 115.845 167.883 121.483 164.634 125.189C161.386 128.895 155.748 129.267 152.043 126.018L134.897 110.99Z" fill="#C6D2FE"/>
<path d="M46.3848 65.7694C46.3848 50.9851 58.3699 39 73.1542 39C87.9389 39 99.9236 50.9851 99.9236 65.7694C99.9236 80.5542 87.9389 92.5388 73.1542 92.5388C58.3699 92.5388 46.3848 80.5542 46.3848 65.7694Z" fill="#EBEFFF"/>
<path opacity="0.5" d="M73.1542 56.8463C68.2261 56.8463 64.2311 60.8414 64.2311 65.7695C64.2311 70.6976 68.2261 74.6926 73.1542 74.6926C78.0823 74.6926 82.0774 70.6976 82.0774 65.7695C82.0774 60.8414 78.0823 56.8463 73.1542 56.8463Z" fill="#0866FF"/>
</svg>
