<svg width="192" height="192" viewBox="0 0 192 192" fill="none" xmlns="http://www.w3.org/2000/svg">
<path d="M0 96C0 50.7452 0 28.1177 14.0589 14.0589C28.1177 0 50.7452 0 96 0V0C141.255 0 163.882 0 177.941 14.0589C192 28.1177 192 50.7452 192 96V96C192 141.255 192 163.882 177.941 177.941C163.882 192 141.255 192 96 192V192C50.7452 192 28.1177 192 14.0589 177.941C0 163.882 0 141.255 0 96V96Z" fill="url(#paint0_linear_2419_6)"/>
<path fill-rule="evenodd" clip-rule="evenodd" d="M133.555 57.0124C126.91 56.1561 118.42 56.1561 107.7 56.1563H83.7099C72.99 56.1561 64.4993 56.1561 57.8543 57.0124C51.0156 57.8937 45.4803 59.7506 41.1151 63.9348C36.7499 68.1189 34.8127 73.4246 33.8932 79.9797C32.9998 86.3491 32.9999 94.4876 33 104.763V105.394C32.9999 115.669 32.9998 123.807 33.8932 130.177C34.8127 136.732 36.7499 142.037 41.1151 146.221C45.4803 150.406 51.0155 152.262 57.8543 153.144C64.4993 154 72.99 154 83.7099 154H107.7C118.42 154 126.91 154 133.555 153.144C140.394 152.262 145.929 150.406 150.294 146.221C154.66 142.037 156.597 136.732 157.516 130.177C158.409 123.807 158.409 115.669 158.409 105.394V104.763C158.409 94.4876 158.409 86.3491 157.516 79.9797C156.597 73.4246 154.66 68.1189 150.294 63.9348C145.929 59.7506 140.394 57.8937 133.555 57.0124Z" fill="white" fill-opacity="0.33"/>
<path d="M136.536 85.5096C136.536 90.1409 132.618 93.8963 127.786 93.8963C122.954 93.8963 119.036 90.1409 119.036 85.5096C119.036 80.8776 122.954 77.1228 127.786 77.1228C132.618 77.1228 136.536 80.8776 136.536 85.5096Z" fill="white"/>
<path fill-rule="evenodd" clip-rule="evenodd" d="M133.555 57.0124C126.91 56.1561 118.42 56.1561 107.7 56.1563H83.7099C72.99 56.1561 64.4993 56.1561 57.8543 57.0124C51.0156 57.8937 45.4803 59.7506 41.1151 63.9348C36.7499 68.1189 34.8127 73.4246 33.8932 79.9797C32.9998 86.3491 32.9999 94.4876 33 104.763V105.394C32.9999 115.669 32.9998 123.807 33.8932 130.177C34.8127 136.732 36.7499 142.037 41.1151 146.221C45.4803 150.406 51.0155 152.262 57.8543 153.144C64.4993 154 72.99 154 83.7099 154H107.7C118.42 154 126.91 154 133.555 153.144C140.394 152.262 145.929 150.406 150.294 146.221C154.66 142.037 156.597 136.732 157.516 130.177C158.409 123.807 158.409 115.669 158.409 105.394V104.763C158.409 94.4876 158.409 86.3491 157.516 79.9797C156.597 73.4246 154.66 68.1189 150.294 63.9348C145.929 59.7506 140.394 57.8937 133.555 57.0124ZM59.0201 65.3242C53.1516 66.0805 49.7705 67.4988 47.3019 69.865C44.8334 72.2312 43.3537 75.4721 42.5647 81.0972C41.9319 85.6092 41.7902 91.2483 41.7586 98.6242L44.711 96.148C51.7597 90.2362 62.3832 90.5754 69.006 96.9237L94.028 120.908C96.5331 123.309 100.477 123.637 103.376 121.684L105.115 120.513C113.458 114.892 124.746 115.543 132.326 122.082L147.423 135.106C148.04 133.45 148.506 131.475 148.844 129.059C149.651 123.314 149.66 115.739 149.66 105.078C149.66 94.4167 149.651 86.8426 148.844 81.0972C148.056 75.4721 146.576 72.2312 144.108 69.865C141.639 67.4988 138.258 66.0805 132.39 65.3242C126.395 64.5518 118.494 64.5428 107.371 64.5428H84.0385C72.9163 64.5428 65.0145 64.5518 59.0201 65.3242Z" fill="white"/>
<path d="M127.6 38.6922C122.209 37.9998 115.344 37.9999 106.788 38H87.4139C78.8569 37.9999 71.9926 37.9998 66.6012 38.6922C61.0181 39.4092 56.3632 40.9368 52.6712 44.4633C50.542 46.4971 49.108 48.8375 48.1312 51.477C51.2928 50.0348 54.8673 49.1849 58.8804 48.6651C65.68 47.7843 74.3682 47.7843 85.3371 47.7844H109.885C120.854 47.7843 129.542 47.7843 136.342 48.6651C139.847 49.1191 143.017 49.8249 145.87 50.9572C144.901 48.5292 143.519 46.3626 141.53 44.4633C137.838 40.9368 133.183 39.4092 127.6 38.6922Z" fill="white" fill-opacity="0.4"/>
<defs>
<linearGradient id="paint0_linear_2419_6" x1="2.3807e-05" y1="9.18777e-07" x2="192" y2="192" gradientUnits="userSpaceOnUse">
<stop stop-color="#F09433"/>
<stop offset="0.245192" stop-color="#E6683C"/>
<stop offset="0.480769" stop-color="#DC2743"/>
<stop offset="0.735577" stop-color="#CC2366"/>
<stop offset="1" stop-color="#BC1888"/>
</linearGradient>
</defs>
</svg>
