<svg width="192" height="192" viewBox="0 0 192 192" fill="none" xmlns="http://www.w3.org/2000/svg">
<rect width="192" height="192" rx="96" fill="url(#paint0_linear_2434_6)"/>
<path opacity="0.2" d="M145.467 91.3428C145.467 103.051 123.322 112.543 96 112.543C68.6786 112.543 46.5334 103.051 46.5334 91.3428C46.5334 82.9511 57.9549 75.6681 74.513 72.2407C72.3801 76.0259 71.2619 80.298 71.2667 84.6427V85.9986C71.2675 87.5888 71.8067 89.1318 72.7963 90.3765C73.7859 91.6212 75.1678 92.4942 76.7169 92.8533C83.0485 94.248 89.5168 94.9266 96 94.8761C102.48 94.9265 108.946 94.248 115.274 92.8533C116.823 92.4916 118.204 91.6181 119.195 90.3743C120.185 89.1304 120.727 87.5888 120.733 85.9986V84.2761C120.744 80.0763 119.68 75.9436 117.642 72.2716C134.111 75.7122 145.467 82.9511 145.467 91.3428Z" fill="#EBEFFF"/>
<path d="M120.552 136.159C120.849 137.048 120.78 138.019 120.361 138.857C119.941 139.695 119.206 140.333 118.317 140.629C117.428 140.925 116.458 140.856 115.62 140.437C114.782 140.018 114.144 139.283 113.848 138.394L110.314 127.794C110.168 127.354 110.109 126.889 110.142 126.426C110.175 125.963 110.299 125.512 110.506 125.097C110.714 124.681 111.001 124.311 111.351 124.007C111.702 123.703 112.109 123.471 112.549 123.325C112.989 123.178 113.454 123.119 113.917 123.152C114.38 123.185 114.832 123.309 115.247 123.516C115.662 123.724 116.032 124.011 116.336 124.362C116.64 124.712 116.872 125.119 117.019 125.559L120.552 136.159ZM96 123.143C95.0629 123.143 94.1642 123.516 93.5016 124.178C92.8389 124.841 92.4667 125.74 92.4667 126.677V140.81C92.4667 141.747 92.8389 142.646 93.5016 143.309C94.1642 143.971 95.0629 144.343 96 144.343C96.9371 144.343 97.8358 143.971 98.4984 143.309C99.1611 142.646 99.5333 141.747 99.5333 140.81V126.677C99.5333 125.74 99.1611 124.841 98.4984 124.178C97.8358 123.516 96.9371 123.143 96 123.143ZM79.4507 123.325C79.0105 123.178 78.5457 123.119 78.0828 123.152C77.6199 123.185 77.1681 123.309 76.753 123.516C76.338 123.724 75.9679 124.011 75.6638 124.362C75.3598 124.712 75.1278 125.119 74.9811 125.559L71.4478 136.159C71.1514 137.048 71.2204 138.019 71.6395 138.857C72.0586 139.695 72.7935 140.333 73.6826 140.629C74.5717 140.925 75.542 140.856 76.3803 140.437C77.2185 140.018 77.8559 139.283 78.1522 138.394L81.6856 127.794C81.8324 127.354 81.891 126.889 81.8581 126.426C81.8252 125.963 81.7015 125.512 81.494 125.096C81.2864 124.681 80.9992 124.311 80.6486 124.007C80.298 123.703 79.891 123.471 79.4507 123.325ZM149 91.3435C149 98.5073 143.095 104.987 132.371 109.58C122.597 113.771 109.692 116.077 96 116.077C82.3083 116.077 69.4028 113.771 59.6288 109.58C48.9051 104.987 43 98.5073 43 91.3435C43 87.6467 44.6209 82.1612 52.3501 76.9893C57.3718 73.6282 64.2486 70.912 72.3046 69.1055C74.5511 65.5462 77.5683 62.5368 81.1335 60.2995C84.6987 58.0622 88.7209 56.6542 92.9031 56.1794C97.0852 55.7046 101.321 56.1751 105.297 57.5562C109.273 58.9373 112.888 61.1937 115.875 64.1589C117.399 65.6666 118.748 67.3407 119.899 69.1497C138.148 73.2749 149 81.512 149 91.3435ZM74.8 84.6434V85.9684C74.7955 86.7621 75.0611 87.5337 75.5531 88.1565C76.0451 88.7793 76.7342 89.2163 77.5074 89.3957C83.5794 90.7344 89.7824 91.3878 96 91.3435C102.214 91.3935 108.414 90.746 114.484 89.4134C115.258 89.235 115.949 88.7986 116.443 88.1757C116.936 87.5529 117.203 86.7807 117.2 85.986V84.2768C117.2 81.4688 116.643 78.6888 115.56 76.0981C114.477 73.5074 112.89 71.1576 110.891 69.1853C108.892 67.213 106.522 65.6573 103.917 64.6087C101.312 63.5601 98.5251 63.0393 95.7173 63.0768C84.1854 63.227 74.8 72.9039 74.8 84.6434ZM141.933 91.3435C141.933 86.176 134.588 80.792 123.428 77.3912C123.986 79.6438 124.268 81.956 124.267 84.2768V86.0081C124.27 88.3989 123.461 90.7199 121.971 92.5899C120.482 94.46 118.4 95.7679 116.069 96.299C109.48 97.7518 102.748 98.46 96 98.4101C89.2523 98.4596 82.5204 97.7514 75.9307 96.299C73.5996 95.7679 71.5184 94.46 70.0288 92.5899C68.5392 90.7199 67.7297 88.3989 67.7333 86.0081V84.6566C67.7341 82.1943 68.0502 79.7422 68.6741 77.3603C57.4513 80.7435 50.0667 86.1539 50.0667 91.3435C50.0667 99.6998 68.9302 109.01 96 109.01C123.07 109.01 141.933 99.6998 141.933 91.3435Z" fill="#EBEFFF"/>
<defs>
<linearGradient id="paint0_linear_2434_6" x1="96" y1="0" x2="96" y2="192" gradientUnits="userSpaceOnUse">
<stop stop-color="#0866FF"/>
<stop offset="1" stop-color="#0042AD"/>
</linearGradient>
</defs>
</svg>
