<svg width="192" height="192" viewBox="0 0 192 192" fill="none" xmlns="http://www.w3.org/2000/svg">
<rect width="192" height="192" rx="48" fill="url(#paint0_linear_2436_11)"/>
<path d="M152.084 85.4048C151.971 84.8309 151.735 84.2881 151.393 83.8133C151.051 83.3386 150.611 82.9431 150.102 82.6536L134.904 73.9923L134.843 56.8634C134.841 56.2735 134.711 55.691 134.463 55.1562C134.214 54.6214 133.852 54.147 133.401 53.7658C127.888 49.1024 121.54 45.5287 114.693 43.2347C114.154 43.0522 113.582 42.9847 113.016 43.0364C112.449 43.0882 111.899 43.2581 111.402 43.5353L96.0713 52.1048L80.7256 43.52C80.2281 43.2413 79.6777 43.0701 79.1099 43.0174C78.542 42.9648 77.9695 43.0318 77.4292 43.2143C70.5867 45.5231 64.245 49.1106 58.7413 53.7861C58.2918 54.1668 57.9301 54.6404 57.6812 55.1743C57.4323 55.7082 57.302 56.2897 57.2995 56.8787L57.223 74.0229L42.0251 82.6842C41.5166 82.9736 41.0764 83.3692 40.7345 83.8439C40.3925 84.3186 40.1567 84.8614 40.0432 85.4354C38.6523 92.4249 38.6523 99.6201 40.0432 106.61C40.1567 107.184 40.3925 107.726 40.7345 108.201C41.0764 108.676 41.5166 109.071 42.0251 109.361L57.223 118.022L57.2842 135.156C57.286 135.746 57.4159 136.328 57.6648 136.863C57.9138 137.398 58.2758 137.873 58.726 138.254C64.239 142.917 70.5876 146.491 77.4343 148.785C77.9735 148.967 78.5449 149.035 79.1118 148.983C79.6787 148.931 80.2284 148.761 80.7256 148.484L96.0713 139.889L111.417 148.474C112.024 148.812 112.709 148.988 113.404 148.984C113.849 148.983 114.291 148.911 114.713 148.77C121.554 146.462 127.896 142.878 133.401 138.208C133.851 137.827 134.213 137.354 134.461 136.82C134.71 136.286 134.841 135.704 134.843 135.115L134.92 117.971L150.118 109.31C150.626 109.02 151.066 108.625 151.408 108.15C151.75 107.675 151.986 107.133 152.099 106.559C153.483 99.5747 153.477 92.3868 152.084 85.4048ZM96.0713 116.376C92.0407 116.376 88.1005 115.181 84.7491 112.942C81.3977 110.703 78.7857 107.52 77.2432 103.796C75.7007 100.072 75.2971 95.9744 76.0835 92.0212C76.8698 88.068 78.8108 84.4367 81.6609 81.5866C84.511 78.7365 88.1423 76.7955 92.0955 76.0092C96.0487 75.2228 100.146 75.6264 103.87 77.1689C107.594 78.7114 110.777 81.3234 113.016 84.6748C115.256 88.0262 116.451 91.9664 116.451 95.997C116.451 101.402 114.304 106.586 110.482 110.407C106.66 114.229 101.476 116.376 96.0713 116.376Z" fill="black"/>
<defs>
<linearGradient id="paint0_linear_2436_11" x1="0" y1="0" x2="192" y2="192" gradientUnits="userSpaceOnUse">
<stop stop-color="#FFD54F"/>
<stop offset="1" stop-color="#FF8F00"/>
</linearGradient>
</defs>
</svg>
