<svg width="192" height="192" viewBox="0 0 192 192" fill="none" xmlns="http://www.w3.org/2000/svg">
<g clip-path="url(#clip0_2454_2)">
<path opacity="0.6" d="M95.9938 0C141.248 0 163.877 -1.14441e-06 177.935 14.059C185.207 21.3308 188.718 30.8952 190.412 44.6975V76.8002H1.5752V44.6975C3.26998 30.8952 6.78052 21.3308 14.0524 14.059C28.1113 -1.14441e-06 50.7388 0 95.9938 0Z" fill="#EBEFFF"/>
<path fill-rule="evenodd" clip-rule="evenodd" d="M0 115.2C0 88.3167 5.72206e-07 74.8758 5.23173 64.608C9.8336 55.5762 17.1768 48.233 26.2086 43.6311C36.4764 38.3994 49.9177 38.3994 76.8002 38.3994H115.2C142.083 38.3994 155.524 38.3994 165.793 43.6311C174.824 48.233 182.167 55.5762 186.769 64.608C192.001 74.8758 192.001 88.3167 192.001 115.2C192.001 142.083 192.001 155.524 186.769 165.792C182.167 174.824 174.824 182.167 165.793 186.768C155.524 192 142.083 192 115.2 192H76.8002C49.9177 192 36.4764 192 26.2086 186.768C17.1768 182.167 9.8336 174.824 5.23173 165.792C5.72206e-07 155.524 0 142.083 0 115.2ZM103.2 86.3996C103.2 82.4232 99.9766 79.1995 96.0003 79.1995C92.024 79.1995 88.8003 82.4232 88.8003 86.3996V126.617L77.0911 114.909C74.2796 112.097 69.7208 112.097 66.909 114.909C64.0973 117.721 64.0973 122.279 66.909 125.091L90.9094 149.091C92.2592 150.441 94.0908 151.2 96.0003 151.2C97.9097 151.2 99.7414 150.441 101.091 149.091L125.091 125.091C127.903 122.279 127.903 117.721 125.091 114.909C122.279 112.097 117.721 112.097 114.909 114.909L103.2 126.617V86.3996Z" fill="#EBEFFF"/>
</g>
<defs>
<clipPath id="clip0_2454_2">
<rect width="192" height="192" fill="white"/>
</clipPath>
</defs>
</svg>
