<svg width="192" height="192" viewBox="0 0 192 192" fill="none" xmlns="http://www.w3.org/2000/svg">
<path opacity="0.6" d="M95.9946 22C130.878 22 148.321 22 159.158 32.8371C164.763 38.4425 167.469 45.815 168.775 56.4544V81.2002H23.2136V56.4544C24.52 45.815 27.2261 38.4425 32.8315 32.8371C43.6685 22 61.1105 22 95.9946 22Z" fill="#EBEFFF"/>
<path fill-rule="evenodd" clip-rule="evenodd" d="M21.9995 110.8C21.9995 90.0775 21.9995 79.7168 26.0323 71.802C29.5796 64.84 35.2399 59.1797 42.2019 55.6324C50.1167 51.5996 60.4777 51.5996 81.1997 51.5996H110.8C131.522 51.5996 141.883 51.5996 149.798 55.6324C156.76 59.1797 162.42 64.84 165.967 71.802C170 79.7168 170 90.0775 170 110.8C170 131.522 170 141.883 165.967 149.798C162.42 156.76 156.76 162.42 149.798 165.967C141.883 170 131.522 170 110.8 170H81.1997C60.4777 170 50.1167 170 42.2019 165.967C35.2399 162.42 29.5796 156.76 26.0323 149.798C21.9995 141.883 21.9995 131.522 21.9995 110.8ZM101.55 88.5997C101.55 85.5346 99.0648 83.0497 95.9997 83.0497C92.9346 83.0497 90.4497 85.5346 90.4497 88.5997V119.601L81.4239 110.576C79.2567 108.408 75.7426 108.408 73.5752 110.576C71.4078 112.743 71.4078 116.257 73.5752 118.424L92.0755 136.924C93.1159 137.965 94.5279 138.55 95.9997 138.55C97.4716 138.55 98.8835 137.965 99.924 136.924L118.424 118.424C120.591 116.257 120.591 112.743 118.424 110.576C116.257 108.408 112.743 108.408 110.576 110.576L101.55 119.601V88.5997Z" fill="#EBEFFF"/>
</svg>
