<svg width="192" height="192" viewBox="0 0 192 192" fill="none" xmlns="http://www.w3.org/2000/svg">
<rect width="192" height="192" rx="48" fill="#0D0D0D"/>
<path opacity="0.2" d="M127.547 91.7262C127.547 99.014 125.386 106.138 121.337 112.198C117.288 118.257 111.533 122.98 104.8 125.769C98.0666 128.558 90.6577 129.288 83.5099 127.866C76.3621 126.444 69.7964 122.935 64.6431 117.782C59.4898 112.628 55.9804 106.063 54.5586 98.9149C53.1368 91.7671 53.8666 84.3582 56.6555 77.6251C59.4444 70.892 64.1673 65.1371 70.227 61.0882C76.2866 57.0393 83.4108 54.8782 90.6986 54.8782C95.5376 54.8782 100.329 55.8313 104.8 57.6831C109.27 59.5348 113.332 62.2491 116.754 65.6707C120.176 69.0924 122.89 73.1545 124.742 77.6251C126.594 82.0957 127.547 86.8872 127.547 91.7262Z" fill="white"/>
<path d="M89.7031 50.0107C100.414 49.7723 110.804 53.6721 118.713 60.8994C126.622 68.1269 131.44 78.1253 132.164 88.8145C132.868 99.199 129.654 109.458 123.18 117.579L145.6 139.999C146.035 140.434 146.38 140.951 146.615 141.52C146.851 142.088 146.973 142.698 146.973 143.313L146.967 143.544C146.94 144.081 146.821 144.609 146.615 145.106C146.38 145.675 146.035 146.192 145.6 146.627C145.164 147.062 144.648 147.408 144.079 147.644C143.511 147.879 142.901 148 142.285 148C141.67 148 141.061 147.879 140.492 147.644C139.995 147.437 139.537 147.147 139.139 146.786L138.972 146.627L116.551 124.201C108.424 130.669 98.1618 133.874 87.7773 133.161C77.089 132.427 67.0954 127.6 59.875 119.686C52.6546 111.771 48.7628 101.377 49.0107 90.666C49.2587 79.9552 53.627 69.752 61.2061 62.1797C68.7851 54.6075 78.9922 50.2493 89.7031 50.0107ZM96.9727 60.1807C90.7337 58.9397 84.2666 59.5764 78.3896 62.0107C72.5127 64.4451 67.4902 68.5683 63.9561 73.8574C60.422 79.1465 58.5352 85.3645 58.5352 91.7256C58.5448 100.253 61.9362 108.428 67.9658 114.458C73.9955 120.488 82.1711 123.878 90.6982 123.888C97.0595 123.888 103.278 122.003 108.567 118.469C113.857 114.935 117.979 109.911 120.413 104.034C122.847 98.1571 123.484 91.6902 122.243 85.4512C121.002 79.2123 117.939 73.4814 113.441 68.9834C108.943 64.4853 103.212 61.4217 96.9727 60.1807Z" fill="white" stroke="white" stroke-width="2"/>
</svg>
