<svg width="192" height="192" viewBox="0 0 192 192" fill="none" xmlns="http://www.w3.org/2000/svg">
<rect width="192" height="192" rx="48" fill="url(#paint0_linear_2337_280)"/>
<path d="M50.4848 64.0046C53.2188 63.9912 55.8968 63.2271 58.2272 61.7955L77.6646 81.2937C74.8812 85.2244 73.3861 89.9237 73.3861 94.7419C73.3861 99.5602 74.8812 104.259 77.6646 108.19L65.7026 120.204C63.3723 118.773 60.6943 118.009 57.9602 117.995C54.8976 117.995 51.9038 118.905 49.3573 120.608C46.8109 122.311 44.8261 124.733 43.6541 127.565C42.4821 130.398 42.1755 133.515 42.7729 136.522C43.3704 139.529 44.8452 142.291 47.0108 144.459C49.1764 146.628 51.9355 148.104 54.9393 148.702C57.943 149.3 61.0565 148.993 63.8859 147.82C66.7154 146.647 69.1338 144.66 70.8353 142.11C72.5368 139.561 73.445 136.564 73.445 133.498C73.4316 130.761 72.6684 128.079 71.2384 125.747L83.2391 113.771C87.1654 116.558 91.8593 118.054 96.6721 118.054C101.485 118.054 106.179 116.558 110.105 113.771L120.237 123.876C118.807 126.209 118.044 128.89 118.03 131.627C118.03 134.693 118.939 137.69 120.64 140.239C122.342 142.789 124.76 144.776 127.589 145.949C130.419 147.122 133.532 147.429 136.536 146.831C139.54 146.233 142.299 144.757 144.465 142.589C146.63 140.42 148.105 137.658 148.702 134.651C149.3 131.644 148.993 128.527 147.821 125.694C146.649 122.862 144.665 120.44 142.118 118.737C139.572 117.034 136.578 116.124 133.515 116.124C130.781 116.138 128.103 116.902 125.773 118.333L115.68 108.19C118.463 104.259 119.958 99.5602 119.958 94.7419C119.958 89.9237 118.463 85.2244 115.68 81.2937L120.166 76.7633C122.497 78.1949 125.175 78.959 127.909 78.9724C130.971 78.9724 133.965 78.0632 136.512 76.3597C139.058 74.6563 141.043 72.2352 142.215 69.4025C143.387 66.5698 143.693 63.4529 143.096 60.4457C142.498 57.4386 141.024 54.6763 138.858 52.5083C136.692 50.3402 133.933 48.8638 130.93 48.2656C127.926 47.6675 124.812 47.9745 121.983 49.1478C119.153 50.3211 116.735 52.3081 115.034 54.8574C113.332 57.4068 112.424 60.404 112.424 63.47C112.437 66.2072 113.2 68.8882 114.63 71.2212L110.105 75.7129C106.179 72.9263 101.485 71.4296 96.6721 71.4296C91.8593 71.4296 87.1654 72.9263 83.2391 75.7129L63.763 56.2535C65.193 53.9205 65.9562 51.2395 65.9696 48.5023C65.9696 45.4362 65.0614 42.439 63.3599 39.8897C61.6584 37.3404 59.24 35.3534 56.4105 34.18C53.5811 33.0067 50.4676 32.6997 47.4639 33.2979C44.4601 33.896 41.701 35.3725 39.5354 37.5405C37.3698 39.7086 35.895 42.4708 35.2975 45.478C34.7001 48.4851 35.0067 51.6021 36.1787 54.4348C37.3507 57.2674 39.3355 59.6886 41.8819 61.392C44.4284 63.0954 47.4222 64.0046 50.4848 64.0046Z" fill="url(#paint1_radial_2337_280)"/>
<defs>
<linearGradient id="paint0_linear_2337_280" x1="96" y1="0" x2="96" y2="192" gradientUnits="userSpaceOnUse">
<stop stop-color="#0866FF"/>
<stop offset="1" stop-color="#0042AD"/>
</linearGradient>
<radialGradient id="paint1_radial_2337_280" cx="0" cy="0" r="1" gradientUnits="userSpaceOnUse" gradientTransform="translate(96.6721 94.7419) rotate(-90) scale(159.032 158.852)">
<stop stop-color="#EBEFFF"/>
<stop offset="1" stop-color="#79AAFF"/>
</radialGradient>
</defs>
</svg>
