<svg width="192" height="192" viewBox="0 0 192 192" fill="none" xmlns="http://www.w3.org/2000/svg">
<rect width="192" height="192" rx="48" fill="url(#paint0_linear_2290_6)"/>
<path d="M168.498 49.6C162.698 40.1091 147.407 39.0545 125.261 46.4364C116.825 41.1636 106.807 38 95.734 38C63.5703 38 37.7339 63.8364 37.7339 96C37.7339 98.1091 37.7339 100.218 38.2612 102.327C23.4976 118.673 18.2249 132.382 24.0249 141.345C27.7158 147.145 34.043 149.255 42.4794 149.255C60.934 149.255 88.8794 137.655 113.134 121.836C131.588 110.236 147.934 96.5273 157.952 83.3455C173.243 65.9455 172.188 55.4 168.498 49.6ZM32.9885 136.073C30.8794 132.909 32.9885 125.527 41.4249 115.509C44.5885 123.945 49.3339 131.327 55.6612 137.655C43.5339 140.291 35.0976 139.764 32.9885 136.073ZM150.57 77.0182C147.407 68.0545 142.661 60.1455 135.807 53.8182C149.516 50.6545 157.425 51.7091 159.534 54.8727C161.643 58.0364 160.061 65.4182 150.57 77.0182Z" fill="#EBEFFF"/>
<path d="M73.5884 149.782C80.4429 152.419 87.8247 154.001 95.7338 154.001C126.316 154.001 151.097 130.273 153.734 100.219C143.716 109.71 131.588 119.201 118.934 127.637C103.116 137.128 87.8247 145.037 73.5884 149.782Z" fill="#79AAFF"/>
<defs>
<linearGradient id="paint0_linear_2290_6" x1="96" y1="0" x2="96" y2="192" gradientUnits="userSpaceOnUse">
<stop stop-color="#0866FF"/>
<stop offset="1" stop-color="#0042AD"/>
</linearGradient>
</defs>
</svg>
