<svg width="973" height="96" viewBox="0 0 973 96" fill="none" xmlns="http://www.w3.org/2000/svg">
<path d="M121.473 9.59997C116.673 1.74545 104.019 0.872724 85.6914 6.98179C78.7096 2.61817 70.4188 0 61.2552 0C34.6371 0 13.2553 21.3817 13.2553 47.9998C13.2553 49.7453 13.2553 51.4907 13.6917 53.2362C1.47355 66.7634 -2.89007 78.1088 1.90991 85.527C4.96445 90.327 10.2008 92.0724 17.1826 92.0724C32.4553 92.0724 55.5824 82.4724 75.6551 69.3816C90.9278 59.7816 104.455 48.4362 112.746 37.5271C125.4 23.1272 124.528 14.3999 121.473 9.59997ZM9.32807 81.1633C7.58262 78.5452 9.32807 72.4361 16.3099 64.1452C18.928 71.127 22.8553 77.2361 28.0916 82.4724C18.0553 84.6542 11.0735 84.2179 9.32807 81.1633ZM106.637 32.2908C104.019 24.8726 100.091 18.3272 94.4187 13.0909C105.764 10.4727 112.31 11.3454 114.055 13.9636C115.8 16.5818 114.491 22.6908 106.637 32.2908Z" fill="#EBEFFF"/>
<path d="M42.9277 92.5093C48.6004 94.6911 54.7095 96.0002 61.2549 96.0002C86.5639 96.0002 107.073 76.3639 109.255 51.4912C100.964 59.3457 90.9276 67.2003 80.4549 74.182C67.364 82.0366 54.7095 88.582 42.9277 92.5093Z" fill="#79AAFF"/>
<path d="M947.083 93.0004C939.089 93.0004 932.536 91.2696 927.426 87.8081C922.316 84.3465 919.226 79.4014 918.154 72.9728L932.495 69.264C933.072 72.1486 934.02 74.4151 935.339 76.0635C936.74 77.7118 938.429 78.9069 940.407 79.6487C942.468 80.308 944.693 80.6377 947.083 80.6377C950.709 80.6377 953.388 80.0196 955.119 78.7833C956.85 77.4646 957.715 75.8574 957.715 73.9618C957.715 72.0662 956.891 70.6239 955.242 69.6349C953.594 68.5634 950.957 67.698 947.33 67.0387L943.869 66.4206C939.583 65.5964 935.668 64.4837 932.124 63.0826C928.58 61.5991 925.737 59.5798 923.594 57.0249C921.451 54.4699 920.38 51.1732 920.38 47.1347C920.38 41.0358 922.605 36.3791 927.055 33.1648C931.506 29.8681 937.358 28.2197 944.611 28.2197C951.451 28.2197 957.138 29.7445 961.671 32.7939C966.204 35.8434 969.171 39.8407 970.572 44.7858L956.108 49.2364C955.449 46.1045 954.089 43.8792 952.028 42.5605C950.05 41.2418 947.578 40.5825 944.611 40.5825C941.644 40.5825 939.377 41.1182 937.811 42.1896C936.245 43.1786 935.462 44.5797 935.462 46.3929C935.462 48.371 936.286 49.8545 937.935 50.8435C939.583 51.7501 941.808 52.4507 944.611 52.9452L948.072 53.5633C952.688 54.3875 956.85 55.5001 960.558 56.9013C964.35 58.2199 967.317 60.1568 969.46 62.7117C971.685 65.1843 972.798 68.5634 972.798 72.8492C972.798 79.2778 970.449 84.2641 965.751 87.8081C961.135 91.2696 954.913 93.0004 947.083 93.0004Z" fill="#EBEFFF"/>
<path d="M845.436 91.2701V29.9509H860.765V37.9867H862.991C863.98 35.8438 865.834 33.8246 868.554 31.929C871.274 29.9509 875.395 28.9619 880.917 28.9619C885.697 28.9619 889.859 30.0746 893.403 32.2998C897.029 34.4427 899.832 37.451 901.81 41.3246C903.788 45.1159 904.777 49.5665 904.777 54.6764V91.2701H889.2V55.9127C889.2 51.2972 888.046 47.8357 885.738 45.528C883.513 43.2203 880.298 42.0664 876.095 42.0664C871.315 42.0664 867.606 43.6736 864.969 46.8879C862.331 50.0198 861.013 54.4291 861.013 60.116V91.2701H845.436Z" fill="#EBEFFF"/>
<path d="M798.914 93.0004C792.815 93.0004 787.334 91.7641 782.471 89.2916C777.608 86.8191 773.776 83.2339 770.974 78.536C768.172 73.8382 766.771 68.1925 766.771 61.5991V59.6211C766.771 53.0276 768.172 47.382 770.974 42.6841C773.776 37.9863 777.608 34.4011 782.471 31.9285C787.334 29.456 792.815 28.2197 798.914 28.2197C805.013 28.2197 810.493 29.456 815.356 31.9285C820.219 34.4011 824.051 37.9863 826.853 42.6841C829.656 47.382 831.057 53.0276 831.057 59.6211V61.5991C831.057 68.1925 829.656 73.8382 826.853 78.536C824.051 83.2339 820.219 86.8191 815.356 89.2916C810.493 91.7641 805.013 93.0004 798.914 93.0004ZM798.914 79.1542C803.694 79.1542 807.65 77.6294 810.782 74.58C813.914 71.4481 815.48 66.9975 815.48 61.2282V59.9919C815.48 54.2227 813.914 49.8133 810.782 46.7638C807.732 43.6319 803.776 42.066 798.914 42.066C794.133 42.066 790.177 43.6319 787.045 46.7638C783.913 49.8133 782.348 54.2227 782.348 59.9919V61.2282C782.348 66.9975 783.913 71.4481 787.045 74.58C790.177 77.6294 794.133 79.1542 798.914 79.1542Z" fill="#EBEFFF"/>
<path d="M704.613 91.2693V72.7252L738.239 44.7855V42.8074H705.849V29.9502H755.3V48.4943L721.673 76.434V78.4121H756.289V91.2693H704.613Z" fill="#EBEFFF"/>
<path d="M673.999 91.2699V29.9507H689.576V91.2699H673.999ZM681.788 22.7804C678.985 22.7804 676.595 21.8738 674.617 20.0606C672.722 18.2474 671.774 15.8572 671.774 12.8902C671.774 9.92313 672.722 7.533 674.617 5.7198C676.595 3.9066 678.985 3 681.788 3C684.672 3 687.062 3.9066 688.958 5.7198C690.854 7.533 691.802 9.92313 691.802 12.8902C691.802 15.8572 690.854 18.2474 688.958 20.0606C687.062 21.8738 684.672 22.7804 681.788 22.7804Z" fill="#EBEFFF"/>
<path d="M624.983 91.2695V29.9504H640.313V36.8735H642.538C643.445 34.401 644.928 32.5878 646.989 31.4339C649.131 30.2801 651.604 29.7031 654.406 29.7031H661.824V43.5494H654.159C650.203 43.5494 646.947 44.6208 644.392 46.7637C641.837 48.8241 640.56 52.0385 640.56 56.4066V91.2695H624.983Z" fill="#EBEFFF"/>
<path d="M578.461 93.0004C572.362 93.0004 566.881 91.7641 562.019 89.2916C557.156 86.8191 553.323 83.2339 550.521 78.536C547.719 73.8382 546.318 68.1925 546.318 61.5991V59.6211C546.318 53.0276 547.719 47.382 550.521 42.6841C553.323 37.9863 557.156 34.4011 562.019 31.9285C566.881 29.456 572.362 28.2197 578.461 28.2197C584.56 28.2197 590.041 29.456 594.903 31.9285C599.766 34.4011 603.599 37.9863 606.401 42.6841C609.203 47.382 610.604 53.0276 610.604 59.6211V61.5991C610.604 68.1925 609.203 73.8382 606.401 78.536C603.599 83.2339 599.766 86.8191 594.903 89.2916C590.041 91.7641 584.56 93.0004 578.461 93.0004ZM578.461 79.1542C583.241 79.1542 587.197 77.6294 590.329 74.58C593.461 71.4481 595.027 66.9975 595.027 61.2282V59.9919C595.027 54.2227 593.461 49.8133 590.329 46.7638C587.28 43.6319 583.324 42.066 578.461 42.066C573.681 42.066 569.725 43.6319 566.593 46.7638C563.461 49.8133 561.895 54.2227 561.895 59.9919V61.2282C561.895 66.9975 563.461 71.4481 566.593 74.58C569.725 77.6294 573.681 79.1542 578.461 79.1542Z" fill="#EBEFFF"/>
<path d="M467.661 91.2696V4.73047H483.979V40.4588H516.123V4.73047H532.441V91.2696H516.123V55.294H483.979V91.2696H467.661Z" fill="#EBEFFF"/>
<path d="M344.764 91.2693L336.11 29.9502H351.564L357.003 80.761H359.229L367.141 29.9502H392.114L400.026 80.761H402.251L407.691 29.9502H423.144L414.49 91.2693H388.652L380.74 40.4585H378.515L370.602 91.2693H344.764Z" fill="#EBEFFF"/>
<path d="M296.649 93.0004C290.55 93.0004 285.152 91.7229 280.454 89.168C275.838 86.5306 272.212 82.863 269.575 78.1651C267.02 73.3849 265.742 67.7805 265.742 61.3518V59.8683C265.742 53.4397 267.02 47.8765 269.575 43.1786C272.13 38.3984 275.715 34.7308 280.33 32.1758C284.946 29.5384 290.303 28.2197 296.402 28.2197C302.418 28.2197 307.652 29.5796 312.102 32.2994C316.553 34.9368 320.015 38.6456 322.487 43.4259C324.96 48.1237 326.196 53.6045 326.196 59.8683V65.1843H281.566C281.731 69.3876 283.297 72.808 286.264 75.4453C289.231 78.0827 292.858 79.4014 297.144 79.4014C301.512 79.4014 304.726 78.4536 306.786 76.558C308.847 74.6624 310.413 72.5607 311.484 70.253L324.218 76.9289C323.064 79.0717 321.374 81.4207 319.149 83.9756C317.006 86.4482 314.122 88.591 310.495 90.4042C306.869 92.135 302.253 93.0004 296.649 93.0004ZM281.69 53.5633H310.372C310.042 50.0193 308.6 47.1759 306.045 45.033C303.572 42.8902 300.317 41.8187 296.278 41.8187C292.075 41.8187 288.737 42.8902 286.264 45.033C283.792 47.1759 282.267 50.0193 281.69 53.5633Z" fill="#EBEFFF"/>
<path d="M185.395 91.2696V4.73047H216.425L233.609 80.1431H235.834V4.73047H251.906V91.2696H220.876L203.691 15.8569H201.466V91.2696H185.395Z" fill="#EBEFFF"/>
</svg>
