<svg width="800" height="800" viewBox="0 0 800 800" fill="none" xmlns="http://www.w3.org/2000/svg">
<g clip-path="url(#clip0_2283_2)">
<path opacity="0.35" d="M6.05583e-05 5.2633C2.90674 5.2633 5.26306 2.90698 5.26306 0.000304699C5.26306 -2.90637 2.90674 -5.2627 6.05583e-05 -5.2627C-2.90661 -5.2627 -5.26294 -2.90637 -5.26294 0.000304699C-5.26294 2.90698 -2.90661 5.2633 6.05583e-05 5.2633Z" fill="#191919"/>
<path opacity="0.35" d="M66.6671 5.2633C69.5737 5.2633 71.9301 2.90698 71.9301 0.000304699C71.9301 -2.90637 69.5737 -5.2627 66.6671 -5.2627C63.7604 -5.2627 61.4041 -2.90637 61.4041 0.000304699C61.4041 2.90698 63.7604 5.2633 66.6671 5.2633Z" fill="#191919"/>
<path opacity="0.35" d="M133.333 5.2633C136.24 5.2633 138.596 2.90698 138.596 0.000304699C138.596 -2.90637 136.24 -5.2627 133.333 -5.2627C130.426 -5.2627 128.07 -2.90637 128.07 0.000304699C128.07 2.90698 130.426 5.2633 133.333 5.2633Z" fill="#191919"/>
<path opacity="0.35" d="M200 5.2633C202.907 5.2633 205.263 2.90698 205.263 0.000304699C205.263 -2.90637 202.907 -5.2627 200 -5.2627C197.093 -5.2627 194.737 -2.90637 194.737 0.000304699C194.737 2.90698 197.093 5.2633 200 5.2633Z" fill="#191919"/>
<path opacity="0.35" d="M266.667 5.2633C269.574 5.2633 271.93 2.90698 271.93 0.000304699C271.93 -2.90637 269.574 -5.2627 266.667 -5.2627C263.76 -5.2627 261.404 -2.90637 261.404 0.000304699C261.404 2.90698 263.76 5.2633 266.667 5.2633Z" fill="#191919"/>
<path opacity="0.35" d="M333.333 5.2633C336.24 5.2633 338.596 2.90698 338.596 0.000304699C338.596 -2.90637 336.24 -5.2627 333.333 -5.2627C330.426 -5.2627 328.07 -2.90637 328.07 0.000304699C328.07 2.90698 330.426 5.2633 333.333 5.2633Z" fill="#191919"/>
<path opacity="0.35" d="M400 5.2633C402.907 5.2633 405.263 2.90698 405.263 0.000304699C405.263 -2.90637 402.907 -5.2627 400 -5.2627C397.093 -5.2627 394.737 -2.90637 394.737 0.000304699C394.737 2.90698 397.093 5.2633 400 5.2633Z" fill="#191919"/>
<path opacity="0.35" d="M466.667 5.2633C469.574 5.2633 471.93 2.90698 471.93 0.000304699C471.93 -2.90637 469.574 -5.2627 466.667 -5.2627C463.76 -5.2627 461.404 -2.90637 461.404 0.000304699C461.404 2.90698 463.76 5.2633 466.667 5.2633Z" fill="#191919"/>
<path opacity="0.35" d="M533.333 5.2633C536.24 5.2633 538.596 2.90698 538.596 0.000304699C538.596 -2.90637 536.24 -5.2627 533.333 -5.2627C530.426 -5.2627 528.07 -2.90637 528.07 0.000304699C528.07 2.90698 530.426 5.2633 533.333 5.2633Z" fill="#191919"/>
<path opacity="0.35" d="M600 5.2633C602.907 5.2633 605.263 2.90698 605.263 0.000304699C605.263 -2.90637 602.907 -5.2627 600 -5.2627C597.093 -5.2627 594.737 -2.90637 594.737 0.000304699C594.737 2.90698 597.093 5.2633 600 5.2633Z" fill="#191919"/>
<path opacity="0.35" d="M666.667 5.2633C669.574 5.2633 671.93 2.90698 671.93 0.000304699C671.93 -2.90637 669.574 -5.2627 666.667 -5.2627C663.76 -5.2627 661.404 -2.90637 661.404 0.000304699C661.404 2.90698 663.76 5.2633 666.667 5.2633Z" fill="#191919"/>
<path opacity="0.35" d="M733.333 5.2633C736.24 5.2633 738.596 2.90698 738.596 0.000304699C738.596 -2.90637 736.24 -5.2627 733.333 -5.2627C730.426 -5.2627 728.07 -2.90637 728.07 0.000304699C728.07 2.90698 730.426 5.2633 733.333 5.2633Z" fill="#191919"/>
<path opacity="0.35" d="M800 5.2633C802.907 5.2633 805.263 2.90698 805.263 0.000304699C805.263 -2.90637 802.907 -5.2627 800 -5.2627C797.093 -5.2627 794.737 -2.90637 794.737 0.000304699C794.737 2.90698 797.093 5.2633 800 5.2633Z" fill="#191919"/>
<path opacity="0.35" d="M6.05583e-05 71.9303C2.90674 71.9303 5.26306 69.574 5.26306 66.6673C5.26306 63.7606 2.90674 61.4043 6.05583e-05 61.4043C-2.90661 61.4043 -5.26294 63.7606 -5.26294 66.6673C-5.26294 69.574 -2.90661 71.9303 6.05583e-05 71.9303Z" fill="#191919"/>
<path opacity="0.35" d="M66.6671 71.9303C69.5737 71.9303 71.9301 69.574 71.9301 66.6673C71.9301 63.7606 69.5737 61.4043 66.6671 61.4043C63.7604 61.4043 61.4041 63.7606 61.4041 66.6673C61.4041 69.574 63.7604 71.9303 66.6671 71.9303Z" fill="#191919"/>
<path d="M133.333 71.9303C136.24 71.9303 138.596 69.574 138.596 66.6673C138.596 63.7606 136.24 61.4043 133.333 61.4043C130.426 61.4043 128.07 63.7606 128.07 66.6673C128.07 69.574 130.426 71.9303 133.333 71.9303Z" fill="#191919"/>
<path opacity="0.35" d="M200 71.9303C202.907 71.9303 205.263 69.574 205.263 66.6673C205.263 63.7606 202.907 61.4043 200 61.4043C197.093 61.4043 194.737 63.7606 194.737 66.6673C194.737 69.574 197.093 71.9303 200 71.9303Z" fill="#191919"/>
<path opacity="0.35" d="M266.667 71.9303C269.574 71.9303 271.93 69.574 271.93 66.6673C271.93 63.7606 269.574 61.4043 266.667 61.4043C263.76 61.4043 261.404 63.7606 261.404 66.6673C261.404 69.574 263.76 71.9303 266.667 71.9303Z" fill="#191919"/>
<path opacity="0.35" d="M333.333 71.9303C336.24 71.9303 338.596 69.574 338.596 66.6673C338.596 63.7606 336.24 61.4043 333.333 61.4043C330.426 61.4043 328.07 63.7606 328.07 66.6673C328.07 69.574 330.426 71.9303 333.333 71.9303Z" fill="#191919"/>
<path opacity="0.35" d="M400 71.9303C402.907 71.9303 405.263 69.574 405.263 66.6673C405.263 63.7606 402.907 61.4043 400 61.4043C397.093 61.4043 394.737 63.7606 394.737 66.6673C394.737 69.574 397.093 71.9303 400 71.9303Z" fill="#191919"/>
<path d="M466.667 71.9303C469.574 71.9303 471.93 69.574 471.93 66.6673C471.93 63.7606 469.574 61.4043 466.667 61.4043C463.76 61.4043 461.404 63.7606 461.404 66.6673C461.404 69.574 463.76 71.9303 466.667 71.9303Z" fill="#191919"/>
<path opacity="0.35" d="M533.333 71.9303C536.24 71.9303 538.596 69.574 538.596 66.6673C538.596 63.7606 536.24 61.4043 533.333 61.4043C530.426 61.4043 528.07 63.7606 528.07 66.6673C528.07 69.574 530.426 71.9303 533.333 71.9303Z" fill="#191919"/>
<path opacity="0.35" d="M600 71.9303C602.907 71.9303 605.263 69.574 605.263 66.6673C605.263 63.7606 602.907 61.4043 600 61.4043C597.093 61.4043 594.737 63.7606 594.737 66.6673C594.737 69.574 597.093 71.9303 600 71.9303Z" fill="#191919"/>
<path opacity="0.35" d="M666.667 71.9303C669.574 71.9303 671.93 69.574 671.93 66.6673C671.93 63.7606 669.574 61.4043 666.667 61.4043C663.76 61.4043 661.404 63.7606 661.404 66.6673C661.404 69.574 663.76 71.9303 666.667 71.9303Z" fill="#191919"/>
<path opacity="0.35" d="M733.333 71.9303C736.24 71.9303 738.596 69.574 738.596 66.6673C738.596 63.7606 736.24 61.4043 733.333 61.4043C730.426 61.4043 728.07 63.7606 728.07 66.6673C728.07 69.574 730.426 71.9303 733.333 71.9303Z" fill="#191919"/>
<path opacity="0.35" d="M800 71.9303C802.907 71.9303 805.263 69.574 805.263 66.6673C805.263 63.7606 802.907 61.4043 800 61.4043C797.093 61.4043 794.737 63.7606 794.737 66.6673C794.737 69.574 797.093 71.9303 800 71.9303Z" fill="#191919"/>
<path opacity="0.35" d="M6.05583e-05 138.596C2.90674 138.596 5.26306 136.24 5.26306 133.333C5.26306 130.427 2.90674 128.07 6.05583e-05 128.07C-2.90661 128.07 -5.26294 130.427 -5.26294 133.333C-5.26294 136.24 -2.90661 138.596 6.05583e-05 138.596Z" fill="#191919"/>
<path d="M66.6671 138.596C69.5737 138.596 71.9301 136.24 71.9301 133.333C71.9301 130.427 69.5737 128.07 66.6671 128.07C63.7604 128.07 61.4041 130.427 61.4041 133.333C61.4041 136.24 63.7604 138.596 66.6671 138.596Z" fill="#191919"/>
<path opacity="0.35" d="M133.333 138.596C136.24 138.596 138.596 136.24 138.596 133.333C138.596 130.427 136.24 128.07 133.333 128.07C130.426 128.07 128.07 130.427 128.07 133.333C128.07 136.24 130.426 138.596 133.333 138.596Z" fill="#191919"/>
<path opacity="0.35" d="M200 138.596C202.907 138.596 205.263 136.24 205.263 133.333C205.263 130.427 202.907 128.07 200 128.07C197.093 128.07 194.737 130.427 194.737 133.333C194.737 136.24 197.093 138.596 200 138.596Z" fill="#191919"/>
<path opacity="0.35" d="M266.667 138.596C269.574 138.596 271.93 136.24 271.93 133.333C271.93 130.427 269.574 128.07 266.667 128.07C263.76 128.07 261.404 130.427 261.404 133.333C261.404 136.24 263.76 138.596 266.667 138.596Z" fill="#191919"/>
<path d="M333.333 138.596C336.24 138.596 338.596 136.24 338.596 133.333C338.596 130.427 336.24 128.07 333.333 128.07C330.426 128.07 328.07 130.427 328.07 133.333C328.07 136.24 330.426 138.596 333.333 138.596Z" fill="#191919"/>
<path d="M400 138.596C402.907 138.596 405.263 136.24 405.263 133.333C405.263 130.427 402.907 128.07 400 128.07C397.093 128.07 394.737 130.427 394.737 133.333C394.737 136.24 397.093 138.596 400 138.596Z" fill="#191919"/>
<path d="M466.667 138.596C469.574 138.596 471.93 136.24 471.93 133.333C471.93 130.427 469.574 128.07 466.667 128.07C463.76 128.07 461.404 130.427 461.404 133.333C461.404 136.24 463.76 138.596 466.667 138.596Z" fill="#191919"/>
<path opacity="0.35" d="M533.333 138.596C536.24 138.596 538.596 136.24 538.596 133.333C538.596 130.427 536.24 128.07 533.333 128.07C530.426 128.07 528.07 130.427 528.07 133.333C528.07 136.24 530.426 138.596 533.333 138.596Z" fill="#191919"/>
<path d="M600 138.596C602.907 138.596 605.263 136.24 605.263 133.333C605.263 130.427 602.907 128.07 600 128.07C597.093 128.07 594.737 130.427 594.737 133.333C594.737 136.24 597.093 138.596 600 138.596Z" fill="#191919"/>
<path opacity="0.35" d="M666.667 138.596C669.574 138.596 671.93 136.24 671.93 133.333C671.93 130.427 669.574 128.07 666.667 128.07C663.76 128.07 661.404 130.427 661.404 133.333C661.404 136.24 663.76 138.596 666.667 138.596Z" fill="#191919"/>
<path opacity="0.35" d="M733.333 138.596C736.24 138.596 738.596 136.24 738.596 133.333C738.596 130.427 736.24 128.07 733.333 128.07C730.426 128.07 728.07 130.427 728.07 133.333C728.07 136.24 730.426 138.596 733.333 138.596Z" fill="#191919"/>
<path opacity="0.35" d="M800 138.596C802.907 138.596 805.263 136.24 805.263 133.333C805.263 130.427 802.907 128.07 800 128.07C797.093 128.07 794.737 130.427 794.737 133.333C794.737 136.24 797.093 138.596 800 138.596Z" fill="#191919"/>
<path opacity="0.35" d="M6.05583e-05 205.263C2.90674 205.263 5.26306 202.907 5.26306 200C5.26306 197.094 2.90674 194.737 6.05583e-05 194.737C-2.90661 194.737 -5.26294 197.094 -5.26294 200C-5.26294 202.907 -2.90661 205.263 6.05583e-05 205.263Z" fill="#191919"/>
<path opacity="0.35" d="M66.6671 205.263C69.5737 205.263 71.9301 202.907 71.9301 200C71.9301 197.094 69.5737 194.737 66.6671 194.737C63.7604 194.737 61.4041 197.094 61.4041 200C61.4041 202.907 63.7604 205.263 66.6671 205.263Z" fill="#191919"/>
<path opacity="0.35" d="M133.333 205.263C136.24 205.263 138.596 202.907 138.596 200C138.596 197.094 136.24 194.737 133.333 194.737C130.426 194.737 128.07 197.094 128.07 200C128.07 202.907 130.426 205.263 133.333 205.263Z" fill="#191919"/>
<path opacity="0.35" d="M200 205.263C202.907 205.263 205.263 202.907 205.263 200C205.263 197.094 202.907 194.737 200 194.737C197.093 194.737 194.737 197.094 194.737 200C194.737 202.907 197.093 205.263 200 205.263Z" fill="#191919"/>
<path opacity="0.35" d="M266.667 205.263C269.574 205.263 271.93 202.907 271.93 200C271.93 197.094 269.574 194.737 266.667 194.737C263.76 194.737 261.404 197.094 261.404 200C261.404 202.907 263.76 205.263 266.667 205.263Z" fill="#191919"/>
<path opacity="0.35" d="M333.333 205.263C336.24 205.263 338.596 202.907 338.596 200C338.596 197.094 336.24 194.737 333.333 194.737C330.426 194.737 328.07 197.094 328.07 200C328.07 202.907 330.426 205.263 333.333 205.263Z" fill="#191919"/>
<path opacity="0.35" d="M400 205.263C402.907 205.263 405.263 202.907 405.263 200C405.263 197.094 402.907 194.737 400 194.737C397.093 194.737 394.737 197.094 394.737 200C394.737 202.907 397.093 205.263 400 205.263Z" fill="#191919"/>
<path opacity="0.35" d="M466.667 205.263C469.574 205.263 471.93 202.907 471.93 200C471.93 197.094 469.574 194.737 466.667 194.737C463.76 194.737 461.404 197.094 461.404 200C461.404 202.907 463.76 205.263 466.667 205.263Z" fill="#191919"/>
<path opacity="0.35" d="M533.333 205.263C536.24 205.263 538.596 202.907 538.596 200C538.596 197.094 536.24 194.737 533.333 194.737C530.426 194.737 528.07 197.094 528.07 200C528.07 202.907 530.426 205.263 533.333 205.263Z" fill="#191919"/>
<path opacity="0.35" d="M600 205.263C602.907 205.263 605.263 202.907 605.263 200C605.263 197.094 602.907 194.737 600 194.737C597.093 194.737 594.737 197.094 594.737 200C594.737 202.907 597.093 205.263 600 205.263Z" fill="#191919"/>
<path opacity="0.35" d="M666.667 205.263C669.574 205.263 671.93 202.907 671.93 200C671.93 197.094 669.574 194.737 666.667 194.737C663.76 194.737 661.404 197.094 661.404 200C661.404 202.907 663.76 205.263 666.667 205.263Z" fill="#191919"/>
<path opacity="0.35" d="M733.333 205.263C736.24 205.263 738.596 202.907 738.596 200C738.596 197.094 736.24 194.737 733.333 194.737C730.426 194.737 728.07 197.094 728.07 200C728.07 202.907 730.426 205.263 733.333 205.263Z" fill="#191919"/>
<path opacity="0.35" d="M800 205.263C802.907 205.263 805.263 202.907 805.263 200C805.263 197.094 802.907 194.737 800 194.737C797.093 194.737 794.737 197.094 794.737 200C794.737 202.907 797.093 205.263 800 205.263Z" fill="#191919"/>
<path opacity="0.35" d="M6.05583e-05 271.93C2.90674 271.93 5.26306 269.574 5.26306 266.667C5.26306 263.761 2.90674 261.404 6.05583e-05 261.404C-2.90661 261.404 -5.26294 263.761 -5.26294 266.667C-5.26294 269.574 -2.90661 271.93 6.05583e-05 271.93Z" fill="#191919"/>
<path opacity="0.35" d="M66.6671 271.93C69.5737 271.93 71.9301 269.574 71.9301 266.667C71.9301 263.761 69.5737 261.404 66.6671 261.404C63.7604 261.404 61.4041 263.761 61.4041 266.667C61.4041 269.574 63.7604 271.93 66.6671 271.93Z" fill="#191919"/>
<path opacity="0.35" d="M133.333 271.93C136.24 271.93 138.596 269.574 138.596 266.667C138.596 263.761 136.24 261.404 133.333 261.404C130.426 261.404 128.07 263.761 128.07 266.667C128.07 269.574 130.426 271.93 133.333 271.93Z" fill="#191919"/>
<path opacity="0.35" d="M200 271.93C202.907 271.93 205.263 269.574 205.263 266.667C205.263 263.761 202.907 261.404 200 261.404C197.093 261.404 194.737 263.761 194.737 266.667C194.737 269.574 197.093 271.93 200 271.93Z" fill="#191919"/>
<path opacity="0.35" d="M266.667 271.93C269.574 271.93 271.93 269.574 271.93 266.667C271.93 263.761 269.574 261.404 266.667 261.404C263.76 261.404 261.404 263.761 261.404 266.667C261.404 269.574 263.76 271.93 266.667 271.93Z" fill="#191919"/>
<path opacity="0.35" d="M333.333 271.93C336.24 271.93 338.596 269.574 338.596 266.667C338.596 263.761 336.24 261.404 333.333 261.404C330.426 261.404 328.07 263.761 328.07 266.667C328.07 269.574 330.426 271.93 333.333 271.93Z" fill="#191919"/>
<path opacity="0.35" d="M400 271.93C402.907 271.93 405.263 269.574 405.263 266.667C405.263 263.761 402.907 261.404 400 261.404C397.093 261.404 394.737 263.761 394.737 266.667C394.737 269.574 397.093 271.93 400 271.93Z" fill="#191919"/>
<path opacity="0.35" d="M466.667 271.93C469.574 271.93 471.93 269.574 471.93 266.667C471.93 263.761 469.574 261.404 466.667 261.404C463.76 261.404 461.404 263.761 461.404 266.667C461.404 269.574 463.76 271.93 466.667 271.93Z" fill="#191919"/>
<path opacity="0.35" d="M533.333 271.93C536.24 271.93 538.596 269.574 538.596 266.667C538.596 263.761 536.24 261.404 533.333 261.404C530.426 261.404 528.07 263.761 528.07 266.667C528.07 269.574 530.426 271.93 533.333 271.93Z" fill="#191919"/>
<path opacity="0.35" d="M600 271.93C602.907 271.93 605.263 269.574 605.263 266.667C605.263 263.761 602.907 261.404 600 261.404C597.093 261.404 594.737 263.761 594.737 266.667C594.737 269.574 597.093 271.93 600 271.93Z" fill="#191919"/>
<path opacity="0.35" d="M666.667 271.93C669.574 271.93 671.93 269.574 671.93 266.667C671.93 263.761 669.574 261.404 666.667 261.404C663.76 261.404 661.404 263.761 661.404 266.667C661.404 269.574 663.76 271.93 666.667 271.93Z" fill="#191919"/>
<path opacity="0.35" d="M733.333 271.93C736.24 271.93 738.596 269.574 738.596 266.667C738.596 263.761 736.24 261.404 733.333 261.404C730.426 261.404 728.07 263.761 728.07 266.667C728.07 269.574 730.426 271.93 733.333 271.93Z" fill="#191919"/>
<path opacity="0.35" d="M800 271.93C802.907 271.93 805.263 269.574 805.263 266.667C805.263 263.761 802.907 261.404 800 261.404C797.093 261.404 794.737 263.761 794.737 266.667C794.737 269.574 797.093 271.93 800 271.93Z" fill="#191919"/>
<path opacity="0.35" d="M6.05583e-05 338.596C2.90674 338.596 5.26306 336.24 5.26306 333.333C5.26306 330.427 2.90674 328.07 6.05583e-05 328.07C-2.90661 328.07 -5.26294 330.427 -5.26294 333.333C-5.26294 336.24 -2.90661 338.596 6.05583e-05 338.596Z" fill="#191919"/>
<path d="M66.6671 338.596C69.5737 338.596 71.9301 336.24 71.9301 333.333C71.9301 330.427 69.5737 328.07 66.6671 328.07C63.7604 328.07 61.4041 330.427 61.4041 333.333C61.4041 336.24 63.7604 338.596 66.6671 338.596Z" fill="#191919"/>
<path opacity="0.35" d="M133.333 338.596C136.24 338.596 138.596 336.24 138.596 333.333C138.596 330.427 136.24 328.07 133.333 328.07C130.426 328.07 128.07 330.427 128.07 333.333C128.07 336.24 130.426 338.596 133.333 338.596Z" fill="#191919"/>
<path opacity="0.35" d="M200 338.596C202.907 338.596 205.263 336.24 205.263 333.333C205.263 330.427 202.907 328.07 200 328.07C197.093 328.07 194.737 330.427 194.737 333.333C194.737 336.24 197.093 338.596 200 338.596Z" fill="#191919"/>
<path d="M266.667 338.596C269.574 338.596 271.93 336.24 271.93 333.333C271.93 330.427 269.574 328.07 266.667 328.07C263.76 328.07 261.404 330.427 261.404 333.333C261.404 336.24 263.76 338.596 266.667 338.596Z" fill="#191919"/>
<path opacity="0.35" d="M333.333 338.596C336.24 338.596 338.596 336.24 338.596 333.333C338.596 330.427 336.24 328.07 333.333 328.07C330.426 328.07 328.07 330.427 328.07 333.333C328.07 336.24 330.426 338.596 333.333 338.596Z" fill="#191919"/>
<path d="M400 338.596C402.907 338.596 405.263 336.24 405.263 333.333C405.263 330.427 402.907 328.07 400 328.07C397.093 328.07 394.737 330.427 394.737 333.333C394.737 336.24 397.093 338.596 400 338.596Z" fill="#191919"/>
<path opacity="0.35" d="M466.667 338.596C469.574 338.596 471.93 336.24 471.93 333.333C471.93 330.427 469.574 328.07 466.667 328.07C463.76 328.07 461.404 330.427 461.404 333.333C461.404 336.24 463.76 338.596 466.667 338.596Z" fill="#191919"/>
<path opacity="0.35" d="M533.333 338.596C536.24 338.596 538.596 336.24 538.596 333.333C538.596 330.427 536.24 328.07 533.333 328.07C530.426 328.07 528.07 330.427 528.07 333.333C528.07 336.24 530.426 338.596 533.333 338.596Z" fill="#191919"/>
<path opacity="0.35" d="M600 338.596C602.907 338.596 605.263 336.24 605.263 333.333C605.263 330.427 602.907 328.07 600 328.07C597.093 328.07 594.737 330.427 594.737 333.333C594.737 336.24 597.093 338.596 600 338.596Z" fill="#191919"/>
<path d="M666.667 338.596C669.574 338.596 671.93 336.24 671.93 333.333C671.93 330.427 669.574 328.07 666.667 328.07C663.76 328.07 661.404 330.427 661.404 333.333C661.404 336.24 663.76 338.596 666.667 338.596Z" fill="#191919"/>
<path d="M733.333 338.596C736.24 338.596 738.596 336.24 738.596 333.333C738.596 330.427 736.24 328.07 733.333 328.07C730.426 328.07 728.07 330.427 728.07 333.333C728.07 336.24 730.426 338.596 733.333 338.596Z" fill="#191919"/>
<path opacity="0.35" d="M800 338.596C802.907 338.596 805.263 336.24 805.263 333.333C805.263 330.427 802.907 328.07 800 328.07C797.093 328.07 794.737 330.427 794.737 333.333C794.737 336.24 797.093 338.596 800 338.596Z" fill="#191919"/>
<path opacity="0.35" d="M6.05583e-05 405.263C2.90674 405.263 5.26306 402.907 5.26306 400C5.26306 397.094 2.90674 394.737 6.05583e-05 394.737C-2.90661 394.737 -5.26294 397.094 -5.26294 400C-5.26294 402.907 -2.90661 405.263 6.05583e-05 405.263Z" fill="#191919"/>
<path opacity="0.35" d="M66.6671 405.263C69.5737 405.263 71.9301 402.907 71.9301 400C71.9301 397.094 69.5737 394.737 66.6671 394.737C63.7604 394.737 61.4041 397.094 61.4041 400C61.4041 402.907 63.7604 405.263 66.6671 405.263Z" fill="#191919"/>
<path d="M133.333 405.263C136.24 405.263 138.596 402.907 138.596 400C138.596 397.094 136.24 394.737 133.333 394.737C130.426 394.737 128.07 397.094 128.07 400C128.07 402.907 130.426 405.263 133.333 405.263Z" fill="#191919"/>
<path opacity="0.35" d="M200 405.263C202.907 405.263 205.263 402.907 205.263 400C205.263 397.094 202.907 394.737 200 394.737C197.093 394.737 194.737 397.094 194.737 400C194.737 402.907 197.093 405.263 200 405.263Z" fill="#191919"/>
<path opacity="0.35" d="M266.667 405.263C269.574 405.263 271.93 402.907 271.93 400C271.93 397.094 269.574 394.737 266.667 394.737C263.76 394.737 261.404 397.094 261.404 400C261.404 402.907 263.76 405.263 266.667 405.263Z" fill="#191919"/>
<path d="M333.333 405.263C336.24 405.263 338.596 402.907 338.596 400C338.596 397.094 336.24 394.737 333.333 394.737C330.426 394.737 328.07 397.094 328.07 400C328.07 402.907 330.426 405.263 333.333 405.263Z" fill="#191919"/>
<path opacity="0.35" d="M400 405.263C402.907 405.263 405.263 402.907 405.263 400C405.263 397.094 402.907 394.737 400 394.737C397.093 394.737 394.737 397.094 394.737 400C394.737 402.907 397.093 405.263 400 405.263Z" fill="#191919"/>
<path opacity="0.35" d="M466.667 405.263C469.574 405.263 471.93 402.907 471.93 400C471.93 397.094 469.574 394.737 466.667 394.737C463.76 394.737 461.404 397.094 461.404 400C461.404 402.907 463.76 405.263 466.667 405.263Z" fill="#191919"/>
<path opacity="0.35" d="M533.333 405.263C536.24 405.263 538.596 402.907 538.596 400C538.596 397.094 536.24 394.737 533.333 394.737C530.426 394.737 528.07 397.094 528.07 400C528.07 402.907 530.426 405.263 533.333 405.263Z" fill="#191919"/>
<path opacity="0.35" d="M600 405.263C602.907 405.263 605.263 402.907 605.263 400C605.263 397.094 602.907 394.737 600 394.737C597.093 394.737 594.737 397.094 594.737 400C594.737 402.907 597.093 405.263 600 405.263Z" fill="#191919"/>
<path opacity="0.35" d="M666.667 405.263C669.574 405.263 671.93 402.907 671.93 400C671.93 397.094 669.574 394.737 666.667 394.737C663.76 394.737 661.404 397.094 661.404 400C661.404 402.907 663.76 405.263 666.667 405.263Z" fill="#191919"/>
<path opacity="0.35" d="M733.333 405.263C736.24 405.263 738.596 402.907 738.596 400C738.596 397.094 736.24 394.737 733.333 394.737C730.426 394.737 728.07 397.094 728.07 400C728.07 402.907 730.426 405.263 733.333 405.263Z" fill="#191919"/>
<path opacity="0.35" d="M800 405.263C802.907 405.263 805.263 402.907 805.263 400C805.263 397.094 802.907 394.737 800 394.737C797.093 394.737 794.737 397.094 794.737 400C794.737 402.907 797.093 405.263 800 405.263Z" fill="#191919"/>
<path opacity="0.35" d="M6.05583e-05 471.93C2.90674 471.93 5.26306 469.574 5.26306 466.667C5.26306 463.761 2.90674 461.404 6.05583e-05 461.404C-2.90661 461.404 -5.26294 463.761 -5.26294 466.667C-5.26294 469.574 -2.90661 471.93 6.05583e-05 471.93Z" fill="#191919"/>
<path d="M66.6671 471.93C69.5737 471.93 71.9301 469.574 71.9301 466.667C71.9301 463.761 69.5737 461.404 66.6671 461.404C63.7604 461.404 61.4041 463.761 61.4041 466.667C61.4041 469.574 63.7604 471.93 66.6671 471.93Z" fill="#191919"/>
<path opacity="0.35" d="M133.333 471.93C136.24 471.93 138.596 469.574 138.596 466.667C138.596 463.761 136.24 461.404 133.333 461.404C130.426 461.404 128.07 463.761 128.07 466.667C128.07 469.574 130.426 471.93 133.333 471.93Z" fill="#191919"/>
<path opacity="0.35" d="M200 471.93C202.907 471.93 205.263 469.574 205.263 466.667C205.263 463.761 202.907 461.404 200 461.404C197.093 461.404 194.737 463.761 194.737 466.667C194.737 469.574 197.093 471.93 200 471.93Z" fill="#191919"/>
<path opacity="0.35" d="M266.667 471.93C269.574 471.93 271.93 469.574 271.93 466.667C271.93 463.761 269.574 461.404 266.667 461.404C263.76 461.404 261.404 463.761 261.404 466.667C261.404 469.574 263.76 471.93 266.667 471.93Z" fill="#191919"/>
<path opacity="0.35" d="M333.333 471.93C336.24 471.93 338.596 469.574 338.596 466.667C338.596 463.761 336.24 461.404 333.333 461.404C330.426 461.404 328.07 463.761 328.07 466.667C328.07 469.574 330.426 471.93 333.333 471.93Z" fill="#191919"/>
<path opacity="0.35" d="M400 471.93C402.907 471.93 405.263 469.574 405.263 466.667C405.263 463.761 402.907 461.404 400 461.404C397.093 461.404 394.737 463.761 394.737 466.667C394.737 469.574 397.093 471.93 400 471.93Z" fill="#191919"/>
<path opacity="0.35" d="M466.667 471.93C469.574 471.93 471.93 469.574 471.93 466.667C471.93 463.761 469.574 461.404 466.667 461.404C463.76 461.404 461.404 463.761 461.404 466.667C461.404 469.574 463.76 471.93 466.667 471.93Z" fill="#191919"/>
<path opacity="0.35" d="M533.333 471.93C536.24 471.93 538.596 469.574 538.596 466.667C538.596 463.761 536.24 461.404 533.333 461.404C530.426 461.404 528.07 463.761 528.07 466.667C528.07 469.574 530.426 471.93 533.333 471.93Z" fill="#191919"/>
<path d="M600 471.93C602.907 471.93 605.263 469.574 605.263 466.667C605.263 463.761 602.907 461.404 600 461.404C597.093 461.404 594.737 463.761 594.737 466.667C594.737 469.574 597.093 471.93 600 471.93Z" fill="#191919"/>
<path opacity="0.35" d="M666.667 471.93C669.574 471.93 671.93 469.574 671.93 466.667C671.93 463.761 669.574 461.404 666.667 461.404C663.76 461.404 661.404 463.761 661.404 466.667C661.404 469.574 663.76 471.93 666.667 471.93Z" fill="#191919"/>
<path d="M733.333 471.93C736.24 471.93 738.596 469.574 738.596 466.667C738.596 463.761 736.24 461.404 733.333 461.404C730.426 461.404 728.07 463.761 728.07 466.667C728.07 469.574 730.426 471.93 733.333 471.93Z" fill="#191919"/>
<path opacity="0.35" d="M800 471.93C802.907 471.93 805.263 469.574 805.263 466.667C805.263 463.761 802.907 461.404 800 461.404C797.093 461.404 794.737 463.761 794.737 466.667C794.737 469.574 797.093 471.93 800 471.93Z" fill="#191919"/>
<path opacity="0.35" d="M6.05583e-05 538.596C2.90674 538.596 5.26306 536.24 5.26306 533.333C5.26306 530.427 2.90674 528.07 6.05583e-05 528.07C-2.90661 528.07 -5.26294 530.427 -5.26294 533.333C-5.26294 536.24 -2.90661 538.596 6.05583e-05 538.596Z" fill="#191919"/>
<path opacity="0.35" d="M66.6671 538.596C69.5737 538.596 71.9301 536.24 71.9301 533.333C71.9301 530.427 69.5737 528.07 66.6671 528.07C63.7604 528.07 61.4041 530.427 61.4041 533.333C61.4041 536.24 63.7604 538.596 66.6671 538.596Z" fill="#191919"/>
<path opacity="0.35" d="M133.333 538.596C136.24 538.596 138.596 536.24 138.596 533.333C138.596 530.427 136.24 528.07 133.333 528.07C130.426 528.07 128.07 530.427 128.07 533.333C128.07 536.24 130.426 538.596 133.333 538.596Z" fill="#191919"/>
<path opacity="0.35" d="M200 538.596C202.907 538.596 205.263 536.24 205.263 533.333C205.263 530.427 202.907 528.07 200 528.07C197.093 528.07 194.737 530.427 194.737 533.333C194.737 536.24 197.093 538.596 200 538.596Z" fill="#191919"/>
<path d="M266.667 538.596C269.574 538.596 271.93 536.24 271.93 533.333C271.93 530.427 269.574 528.07 266.667 528.07C263.76 528.07 261.404 530.427 261.404 533.333C261.404 536.24 263.76 538.596 266.667 538.596Z" fill="#191919"/>
<path opacity="0.35" d="M333.333 538.596C336.24 538.596 338.596 536.24 338.596 533.333C338.596 530.427 336.24 528.07 333.333 528.07C330.426 528.07 328.07 530.427 328.07 533.333C328.07 536.24 330.426 538.596 333.333 538.596Z" fill="#191919"/>
<path d="M400 538.596C402.907 538.596 405.263 536.24 405.263 533.333C405.263 530.427 402.907 528.07 400 528.07C397.093 528.07 394.737 530.427 394.737 533.333C394.737 536.24 397.093 538.596 400 538.596Z" fill="#191919"/>
<path opacity="0.35" d="M466.667 538.596C469.574 538.596 471.93 536.24 471.93 533.333C471.93 530.427 469.574 528.07 466.667 528.07C463.76 528.07 461.404 530.427 461.404 533.333C461.404 536.24 463.76 538.596 466.667 538.596Z" fill="#191919"/>
<path opacity="0.35" d="M533.333 538.596C536.24 538.596 538.596 536.24 538.596 533.333C538.596 530.427 536.24 528.07 533.333 528.07C530.426 528.07 528.07 530.427 528.07 533.333C528.07 536.24 530.426 538.596 533.333 538.596Z" fill="#191919"/>
<path opacity="0.35" d="M600 538.596C602.907 538.596 605.263 536.24 605.263 533.333C605.263 530.427 602.907 528.07 600 528.07C597.093 528.07 594.737 530.427 594.737 533.333C594.737 536.24 597.093 538.596 600 538.596Z" fill="#191919"/>
<path d="M666.667 538.596C669.574 538.596 671.93 536.24 671.93 533.333C671.93 530.427 669.574 528.07 666.667 528.07C663.76 528.07 661.404 530.427 661.404 533.333C661.404 536.24 663.76 538.596 666.667 538.596Z" fill="#191919"/>
<path opacity="0.35" d="M733.333 538.596C736.24 538.596 738.596 536.24 738.596 533.333C738.596 530.427 736.24 528.07 733.333 528.07C730.426 528.07 728.07 530.427 728.07 533.333C728.07 536.24 730.426 538.596 733.333 538.596Z" fill="#191919"/>
<path opacity="0.35" d="M800 538.596C802.907 538.596 805.263 536.24 805.263 533.333C805.263 530.427 802.907 528.07 800 528.07C797.093 528.07 794.737 530.427 794.737 533.333C794.737 536.24 797.093 538.596 800 538.596Z" fill="#191919"/>
<path opacity="0.35" d="M6.05583e-05 605.263C2.90674 605.263 5.26306 602.907 5.26306 600C5.26306 597.094 2.90674 594.737 6.05583e-05 594.737C-2.90661 594.737 -5.26294 597.094 -5.26294 600C-5.26294 602.907 -2.90661 605.263 6.05583e-05 605.263Z" fill="#191919"/>
<path opacity="0.35" d="M66.6671 605.263C69.5737 605.263 71.9301 602.907 71.9301 600C71.9301 597.094 69.5737 594.737 66.6671 594.737C63.7604 594.737 61.4041 597.094 61.4041 600C61.4041 602.907 63.7604 605.263 66.6671 605.263Z" fill="#191919"/>
<path opacity="0.35" d="M133.333 605.263C136.24 605.263 138.596 602.907 138.596 600C138.596 597.094 136.24 594.737 133.333 594.737C130.426 594.737 128.07 597.094 128.07 600C128.07 602.907 130.426 605.263 133.333 605.263Z" fill="#191919"/>
<path d="M200 605.263C202.907 605.263 205.263 602.907 205.263 600C205.263 597.094 202.907 594.737 200 594.737C197.093 594.737 194.737 597.094 194.737 600C194.737 602.907 197.093 605.263 200 605.263Z" fill="#191919"/>
<path opacity="0.35" d="M266.667 605.263C269.574 605.263 271.93 602.907 271.93 600C271.93 597.094 269.574 594.737 266.667 594.737C263.76 594.737 261.404 597.094 261.404 600C261.404 602.907 263.76 605.263 266.667 605.263Z" fill="#191919"/>
<path opacity="0.35" d="M333.333 605.263C336.24 605.263 338.596 602.907 338.596 600C338.596 597.094 336.24 594.737 333.333 594.737C330.426 594.737 328.07 597.094 328.07 600C328.07 602.907 330.426 605.263 333.333 605.263Z" fill="#191919"/>
<path opacity="0.35" d="M400 605.263C402.907 605.263 405.263 602.907 405.263 600C405.263 597.094 402.907 594.737 400 594.737C397.093 594.737 394.737 597.094 394.737 600C394.737 602.907 397.093 605.263 400 605.263Z" fill="#191919"/>
<path opacity="0.35" d="M466.667 605.263C469.574 605.263 471.93 602.907 471.93 600C471.93 597.094 469.574 594.737 466.667 594.737C463.76 594.737 461.404 597.094 461.404 600C461.404 602.907 463.76 605.263 466.667 605.263Z" fill="#191919"/>
<path d="M533.333 605.263C536.24 605.263 538.596 602.907 538.596 600C538.596 597.094 536.24 594.737 533.333 594.737C530.426 594.737 528.07 597.094 528.07 600C528.07 602.907 530.426 605.263 533.333 605.263Z" fill="#191919"/>
<path opacity="0.35" d="M600 605.263C602.907 605.263 605.263 602.907 605.263 600C605.263 597.094 602.907 594.737 600 594.737C597.093 594.737 594.737 597.094 594.737 600C594.737 602.907 597.093 605.263 600 605.263Z" fill="#191919"/>
<path opacity="0.35" d="M666.667 605.263C669.574 605.263 671.93 602.907 671.93 600C671.93 597.094 669.574 594.737 666.667 594.737C663.76 594.737 661.404 597.094 661.404 600C661.404 602.907 663.76 605.263 666.667 605.263Z" fill="#191919"/>
<path opacity="0.35" d="M733.333 605.263C736.24 605.263 738.596 602.907 738.596 600C738.596 597.094 736.24 594.737 733.333 594.737C730.426 594.737 728.07 597.094 728.07 600C728.07 602.907 730.426 605.263 733.333 605.263Z" fill="#191919"/>
<path opacity="0.35" d="M800 605.263C802.907 605.263 805.263 602.907 805.263 600C805.263 597.094 802.907 594.737 800 594.737C797.093 594.737 794.737 597.094 794.737 600C794.737 602.907 797.093 605.263 800 605.263Z" fill="#191919"/>
<path opacity="0.35" d="M6.05583e-05 671.93C2.90674 671.93 5.26306 669.574 5.26306 666.667C5.26306 663.761 2.90674 661.404 6.05583e-05 661.404C-2.90661 661.404 -5.26294 663.761 -5.26294 666.667C-5.26294 669.574 -2.90661 671.93 6.05583e-05 671.93Z" fill="#191919"/>
<path d="M66.6671 671.93C69.5737 671.93 71.9301 669.574 71.9301 666.667C71.9301 663.761 69.5737 661.404 66.6671 661.404C63.7604 661.404 61.4041 663.761 61.4041 666.667C61.4041 669.574 63.7604 671.93 66.6671 671.93Z" fill="#191919"/>
<path opacity="0.35" d="M133.333 671.93C136.24 671.93 138.596 669.574 138.596 666.667C138.596 663.761 136.24 661.404 133.333 661.404C130.426 661.404 128.07 663.761 128.07 666.667C128.07 669.574 130.426 671.93 133.333 671.93Z" fill="#191919"/>
<path opacity="0.35" d="M200 671.93C202.907 671.93 205.263 669.574 205.263 666.667C205.263 663.761 202.907 661.404 200 661.404C197.093 661.404 194.737 663.761 194.737 666.667C194.737 669.574 197.093 671.93 200 671.93Z" fill="#191919"/>
<path opacity="0.35" d="M266.667 671.93C269.574 671.93 271.93 669.574 271.93 666.667C271.93 663.761 269.574 661.404 266.667 661.404C263.76 661.404 261.404 663.761 261.404 666.667C261.404 669.574 263.76 671.93 266.667 671.93Z" fill="#191919"/>
<path d="M333.333 671.93C336.24 671.93 338.596 669.574 338.596 666.667C338.596 663.761 336.24 661.404 333.333 661.404C330.426 661.404 328.07 663.761 328.07 666.667C328.07 669.574 330.426 671.93 333.333 671.93Z" fill="#191919"/>
<path d="M400 671.93C402.907 671.93 405.263 669.574 405.263 666.667C405.263 663.761 402.907 661.404 400 661.404C397.093 661.404 394.737 663.761 394.737 666.667C394.737 669.574 397.093 671.93 400 671.93Z" fill="#191919"/>
<path opacity="0.35" d="M466.667 671.93C469.574 671.93 471.93 669.574 471.93 666.667C471.93 663.761 469.574 661.404 466.667 661.404C463.76 661.404 461.404 663.761 461.404 666.667C461.404 669.574 463.76 671.93 466.667 671.93Z" fill="#191919"/>
<path opacity="0.35" d="M533.333 671.93C536.24 671.93 538.596 669.574 538.596 666.667C538.596 663.761 536.24 661.404 533.333 661.404C530.426 661.404 528.07 663.761 528.07 666.667C528.07 669.574 530.426 671.93 533.333 671.93Z" fill="#191919"/>
<path opacity="0.35" d="M600 671.93C602.907 671.93 605.263 669.574 605.263 666.667C605.263 663.761 602.907 661.404 600 661.404C597.093 661.404 594.737 663.761 594.737 666.667C594.737 669.574 597.093 671.93 600 671.93Z" fill="#191919"/>
<path opacity="0.35" d="M666.667 671.93C669.574 671.93 671.93 669.574 671.93 666.667C671.93 663.761 669.574 661.404 666.667 661.404C663.76 661.404 661.404 663.761 661.404 666.667C661.404 669.574 663.76 671.93 666.667 671.93Z" fill="#191919"/>
<path opacity="0.35" d="M733.333 671.93C736.24 671.93 738.596 669.574 738.596 666.667C738.596 663.761 736.24 661.404 733.333 661.404C730.426 661.404 728.07 663.761 728.07 666.667C728.07 669.574 730.426 671.93 733.333 671.93Z" fill="#191919"/>
<path opacity="0.35" d="M800 671.93C802.907 671.93 805.263 669.574 805.263 666.667C805.263 663.761 802.907 661.404 800 661.404C797.093 661.404 794.737 663.761 794.737 666.667C794.737 669.574 797.093 671.93 800 671.93Z" fill="#191919"/>
<path opacity="0.35" d="M6.05583e-05 738.596C2.90674 738.596 5.26306 736.24 5.26306 733.333C5.26306 730.427 2.90674 728.07 6.05583e-05 728.07C-2.90661 728.07 -5.26294 730.427 -5.26294 733.333C-5.26294 736.24 -2.90661 738.596 6.05583e-05 738.596Z" fill="#191919"/>
<path opacity="0.35" d="M66.6671 738.596C69.5737 738.596 71.9301 736.24 71.9301 733.333C71.9301 730.427 69.5737 728.07 66.6671 728.07C63.7604 728.07 61.4041 730.427 61.4041 733.333C61.4041 736.24 63.7604 738.596 66.6671 738.596Z" fill="#191919"/>
<path opacity="0.35" d="M133.333 738.596C136.24 738.596 138.596 736.24 138.596 733.333C138.596 730.427 136.24 728.07 133.333 728.07C130.426 728.07 128.07 730.427 128.07 733.333C128.07 736.24 130.426 738.596 133.333 738.596Z" fill="#191919"/>
<path d="M200 738.596C202.907 738.596 205.263 736.24 205.263 733.333C205.263 730.427 202.907 728.07 200 728.07C197.093 728.07 194.737 730.427 194.737 733.333C194.737 736.24 197.093 738.596 200 738.596Z" fill="#191919"/>
<path opacity="0.35" d="M266.667 738.596C269.574 738.596 271.93 736.24 271.93 733.333C271.93 730.427 269.574 728.07 266.667 728.07C263.76 728.07 261.404 730.427 261.404 733.333C261.404 736.24 263.76 738.596 266.667 738.596Z" fill="#191919"/>
<path opacity="0.35" d="M333.333 738.596C336.24 738.596 338.596 736.24 338.596 733.333C338.596 730.427 336.24 728.07 333.333 728.07C330.426 728.07 328.07 730.427 328.07 733.333C328.07 736.24 330.426 738.596 333.333 738.596Z" fill="#191919"/>
<path d="M400 738.596C402.907 738.596 405.263 736.24 405.263 733.333C405.263 730.427 402.907 728.07 400 728.07C397.093 728.07 394.737 730.427 394.737 733.333C394.737 736.24 397.093 738.596 400 738.596Z" fill="#191919"/>
<path opacity="0.35" d="M466.667 738.596C469.574 738.596 471.93 736.24 471.93 733.333C471.93 730.427 469.574 728.07 466.667 728.07C463.76 728.07 461.404 730.427 461.404 733.333C461.404 736.24 463.76 738.596 466.667 738.596Z" fill="#191919"/>
<path opacity="0.35" d="M533.333 738.596C536.24 738.596 538.596 736.24 538.596 733.333C538.596 730.427 536.24 728.07 533.333 728.07C530.426 728.07 528.07 730.427 528.07 733.333C528.07 736.24 530.426 738.596 533.333 738.596Z" fill="#191919"/>
<path opacity="0.35" d="M600 738.596C602.907 738.596 605.263 736.24 605.263 733.333C605.263 730.427 602.907 728.07 600 728.07C597.093 728.07 594.737 730.427 594.737 733.333C594.737 736.24 597.093 738.596 600 738.596Z" fill="#191919"/>
<path d="M666.667 738.596C669.574 738.596 671.93 736.24 671.93 733.333C671.93 730.427 669.574 728.07 666.667 728.07C663.76 728.07 661.404 730.427 661.404 733.333C661.404 736.24 663.76 738.596 666.667 738.596Z" fill="#191919"/>
<path opacity="0.35" d="M733.333 738.596C736.24 738.596 738.596 736.24 738.596 733.333C738.596 730.427 736.24 728.07 733.333 728.07C730.426 728.07 728.07 730.427 728.07 733.333C728.07 736.24 730.426 738.596 733.333 738.596Z" fill="#191919"/>
<path opacity="0.35" d="M800 738.596C802.907 738.596 805.263 736.24 805.263 733.333C805.263 730.427 802.907 728.07 800 728.07C797.093 728.07 794.737 730.427 794.737 733.333C794.737 736.24 797.093 738.596 800 738.596Z" fill="#191919"/>
<path opacity="0.35" d="M6.05583e-05 805.263C2.90674 805.263 5.26306 802.907 5.26306 800C5.26306 797.094 2.90674 794.737 6.05583e-05 794.737C-2.90661 794.737 -5.26294 797.094 -5.26294 800C-5.26294 802.907 -2.90661 805.263 6.05583e-05 805.263Z" fill="#191919"/>
<path opacity="0.35" d="M66.6671 805.263C69.5737 805.263 71.9301 802.907 71.9301 800C71.9301 797.094 69.5737 794.737 66.6671 794.737C63.7604 794.737 61.4041 797.094 61.4041 800C61.4041 802.907 63.7604 805.263 66.6671 805.263Z" fill="#191919"/>
<path opacity="0.35" d="M133.333 805.263C136.24 805.263 138.596 802.907 138.596 800C138.596 797.094 136.24 794.737 133.333 794.737C130.426 794.737 128.07 797.094 128.07 800C128.07 802.907 130.426 805.263 133.333 805.263Z" fill="#191919"/>
<path opacity="0.35" d="M200 805.263C202.907 805.263 205.263 802.907 205.263 800C205.263 797.094 202.907 794.737 200 794.737C197.093 794.737 194.737 797.094 194.737 800C194.737 802.907 197.093 805.263 200 805.263Z" fill="#191919"/>
<path opacity="0.35" d="M266.667 805.263C269.574 805.263 271.93 802.907 271.93 800C271.93 797.094 269.574 794.737 266.667 794.737C263.76 794.737 261.404 797.094 261.404 800C261.404 802.907 263.76 805.263 266.667 805.263Z" fill="#191919"/>
<path opacity="0.35" d="M333.333 805.263C336.24 805.263 338.596 802.907 338.596 800C338.596 797.094 336.24 794.737 333.333 794.737C330.426 794.737 328.07 797.094 328.07 800C328.07 802.907 330.426 805.263 333.333 805.263Z" fill="#191919"/>
<path opacity="0.35" d="M400 805.263C402.907 805.263 405.263 802.907 405.263 800C405.263 797.094 402.907 794.737 400 794.737C397.093 794.737 394.737 797.094 394.737 800C394.737 802.907 397.093 805.263 400 805.263Z" fill="#191919"/>
<path opacity="0.35" d="M466.667 805.263C469.574 805.263 471.93 802.907 471.93 800C471.93 797.094 469.574 794.737 466.667 794.737C463.76 794.737 461.404 797.094 461.404 800C461.404 802.907 463.76 805.263 466.667 805.263Z" fill="#191919"/>
<path opacity="0.35" d="M533.333 805.263C536.24 805.263 538.596 802.907 538.596 800C538.596 797.094 536.24 794.737 533.333 794.737C530.426 794.737 528.07 797.094 528.07 800C528.07 802.907 530.426 805.263 533.333 805.263Z" fill="#191919"/>
<path opacity="0.35" d="M600 805.263C602.907 805.263 605.263 802.907 605.263 800C605.263 797.094 602.907 794.737 600 794.737C597.093 794.737 594.737 797.094 594.737 800C594.737 802.907 597.093 805.263 600 805.263Z" fill="#191919"/>
<path opacity="0.35" d="M666.667 805.263C669.574 805.263 671.93 802.907 671.93 800C671.93 797.094 669.574 794.737 666.667 794.737C663.76 794.737 661.404 797.094 661.404 800C661.404 802.907 663.76 805.263 666.667 805.263Z" fill="#191919"/>
<path opacity="0.35" d="M733.333 805.263C736.24 805.263 738.596 802.907 738.596 800C738.596 797.094 736.24 794.737 733.333 794.737C730.426 794.737 728.07 797.094 728.07 800C728.07 802.907 730.426 805.263 733.333 805.263Z" fill="#191919"/>
<path opacity="0.35" d="M800 805.263C802.907 805.263 805.263 802.907 805.263 800C805.263 797.094 802.907 794.737 800 794.737C797.093 794.737 794.737 797.094 794.737 800C794.737 802.907 797.093 805.263 800 805.263Z" fill="#191919"/>
</g>
<defs>
<clipPath id="clip0_2283_2">
<rect width="800" height="800" fill="white"/>
</clipPath>
</defs>
</svg>
