<svg width="192" height="192" viewBox="0 0 192 192" fill="none" xmlns="http://www.w3.org/2000/svg">
<rect width="192" height="192" rx="48" fill="url(#paint0_linear_2393_2)"/>
<mask id="path-2-inside-1_2393_2" fill="white">
<path d="M77.6495 90.915C78.0412 90.915 78.5806 91.0378 78.8135 91.3838C81.555 95.4593 84.8828 99.4648 88.7061 103.288C92.5554 107.137 96.7578 110.615 100.858 113.347C101.152 113.542 101.218 113.959 101.233 114.13C101.248 114.298 101.254 114.713 101.003 114.954C83.2132 131.974 64.8753 143.418 55.3419 143.452C55.1083 143.613 54.8378 143.75 54.5274 143.854L48.6221 145.822C48.268 145.941 47.933 146 47.628 146C47.0545 146 46.5816 145.783 46.2969 145.388C45.9481 144.904 45.9052 144.19 46.1758 143.376L48.1446 137.471C48.2486 137.159 48.389 136.889 48.5528 136.654C48.588 127.254 59.402 109.473 76.8555 91.1836C77.0671 90.9624 77.4043 90.915 77.6495 90.915ZM135.769 46C137.219 46 138.579 46.5611 139.598 47.5801L144.419 52.4004C145.438 53.4188 145.999 54.7792 145.999 56.2295C145.999 57.6798 145.437 59.0397 144.418 60.0576L142.567 61.9082L142.825 62.165C143.844 63.1834 144.405 64.5437 144.405 65.9941C144.405 67.4444 143.844 68.8036 142.825 69.8223L134.124 78.5234C133.227 79.4206 132.065 79.9613 130.81 80.0781C125.631 87.9854 118.812 96.5446 111.479 104.386L111.441 104.426C111.167 104.722 110.707 105.216 110.065 105.216C109.83 105.216 109.598 105.147 109.377 105.01C105.228 102.532 101.4 99.4506 96.9717 95.0225C92.3873 90.4384 89.6638 87.081 87.2569 83.0508C86.6933 82.1121 86.8689 81.2043 87.7794 80.3545C95.9598 72.7213 104.336 66.1308 111.92 61.1846C112.037 59.9306 112.578 58.7706 113.475 57.874L122.175 49.1729C123.194 48.1539 124.554 47.5938 126.004 47.5938C127.454 47.5938 128.814 48.1537 129.833 49.1729L130.09 49.4307L131.94 47.5801C132.959 46.5611 134.318 46.0001 135.769 46Z"/>
</mask>
<path d="M77.6495 90.915C78.0412 90.915 78.5806 91.0378 78.8135 91.3838C81.555 95.4593 84.8828 99.4648 88.7061 103.288C92.5554 107.137 96.7578 110.615 100.858 113.347C101.152 113.542 101.218 113.959 101.233 114.13C101.248 114.298 101.254 114.713 101.003 114.954C83.2132 131.974 64.8753 143.418 55.3419 143.452C55.1083 143.613 54.8378 143.75 54.5274 143.854L48.6221 145.822C48.268 145.941 47.933 146 47.628 146C47.0545 146 46.5816 145.783 46.2969 145.388C45.9481 144.904 45.9052 144.19 46.1758 143.376L48.1446 137.471C48.2486 137.159 48.389 136.889 48.5528 136.654C48.588 127.254 59.402 109.473 76.8555 91.1836C77.0671 90.9624 77.4043 90.915 77.6495 90.915ZM135.769 46C137.219 46 138.579 46.5611 139.598 47.5801L144.419 52.4004C145.438 53.4188 145.999 54.7792 145.999 56.2295C145.999 57.6798 145.437 59.0397 144.418 60.0576L142.567 61.9082L142.825 62.165C143.844 63.1834 144.405 64.5437 144.405 65.9941C144.405 67.4444 143.844 68.8036 142.825 69.8223L134.124 78.5234C133.227 79.4206 132.065 79.9613 130.81 80.0781C125.631 87.9854 118.812 96.5446 111.479 104.386L111.441 104.426C111.167 104.722 110.707 105.216 110.065 105.216C109.83 105.216 109.598 105.147 109.377 105.01C105.228 102.532 101.4 99.4506 96.9717 95.0225C92.3873 90.4384 89.6638 87.081 87.2569 83.0508C86.6933 82.1121 86.8689 81.2043 87.7794 80.3545C95.9598 72.7213 104.336 66.1308 111.92 61.1846C112.037 59.9306 112.578 58.7706 113.475 57.874L122.175 49.1729C123.194 48.1539 124.554 47.5938 126.004 47.5938C127.454 47.5938 128.814 48.1537 129.833 49.1729L130.09 49.4307L131.94 47.5801C132.959 46.5611 134.318 46.0001 135.769 46Z" fill="#EBEFFF"/>
<path d="M77.6495 90.915L77.6495 88.915L77.6494 88.915L77.6495 90.915ZM78.8135 91.3838L80.473 90.2675L80.4726 90.2668L78.8135 91.3838ZM88.7061 103.288L87.2919 104.702L87.2919 104.702L88.7061 103.288ZM100.858 113.347L101.968 111.683L101.967 111.682L100.858 113.347ZM101.233 114.13L103.226 113.955L103.226 113.954L101.233 114.13ZM101.003 114.954L102.386 116.399L102.386 116.399L101.003 114.954ZM55.3419 143.452L55.3346 141.452L54.7154 141.454L54.2057 141.806L55.3419 143.452ZM54.5274 143.854L53.8963 141.956L53.8949 141.956L54.5274 143.854ZM48.6221 145.822L47.9896 143.925L47.9887 143.925L48.6221 145.822ZM47.628 146L47.6279 148H47.628V146ZM46.2969 145.388L47.9197 144.219L47.9192 144.218L46.2969 145.388ZM46.1758 143.376L44.2785 142.743L44.2781 142.745L46.1758 143.376ZM48.1446 137.471L46.2475 136.837L46.2473 136.838L48.1446 137.471ZM48.5528 136.654L50.1925 137.799L50.5504 137.287L50.5528 136.662L48.5528 136.654ZM76.8555 91.1836L75.4101 89.8013L75.4086 89.8028L76.8555 91.1836ZM135.769 46L135.769 44L135.768 44L135.769 46ZM139.598 47.5801L138.183 48.9941L138.184 48.9944L139.598 47.5801ZM144.419 52.4004L143.005 53.8147L143.005 53.8148L144.419 52.4004ZM145.999 56.2295L147.999 56.2297V56.2295H145.999ZM144.418 60.0576L143.004 58.6429L143.004 58.6434L144.418 60.0576ZM142.567 61.9082L141.153 60.494L139.736 61.9109L141.156 63.3251L142.567 61.9082ZM142.825 62.165L144.239 60.7506L144.237 60.7481L142.825 62.165ZM144.405 65.9941L146.405 65.9943V65.9941H144.405ZM142.825 69.8223L144.239 71.2365L144.24 71.2364L142.825 69.8223ZM134.124 78.5234L135.538 79.9377L135.538 79.9377L134.124 78.5234ZM130.81 80.0781L130.624 78.0867L129.665 78.176L129.137 78.9823L130.81 80.0781ZM111.479 104.386L110.018 103.02L110.012 103.026L111.479 104.386ZM111.441 104.426L112.907 105.786L112.908 105.785L111.441 104.426ZM110.065 105.216L110.065 107.216H110.065V105.216ZM109.377 105.01L110.431 103.31L110.417 103.301L110.403 103.293L109.377 105.01ZM96.9717 95.0225L98.3859 93.6082L98.3859 93.6082L96.9717 95.0225ZM87.2569 83.0508L88.974 82.0253L88.9716 82.0214L87.2569 83.0508ZM87.7794 80.3545L86.4149 78.8922L86.4147 78.8924L87.7794 80.3545ZM111.92 61.1846L113.013 62.8598L113.821 62.3322L113.911 61.3707L111.92 61.1846ZM113.475 57.874L114.889 59.2882L114.889 59.2882L113.475 57.874ZM122.175 49.1729L123.589 50.587L123.589 50.5869L122.175 49.1729ZM126.004 47.5938L126.004 45.5938H126.004V47.5938ZM129.833 49.1729L131.25 47.7613L131.248 47.7589L129.833 49.1729ZM130.09 49.4307L128.673 50.8422L130.087 52.2618L131.504 50.8449L130.09 49.4307ZM131.94 47.5801L133.355 48.9943L133.355 48.9938L131.94 47.5801ZM77.6495 90.915V92.915C77.646 92.915 77.6509 92.915 77.658 92.9161C77.6655 92.9173 77.6578 92.9169 77.635 92.909C77.614 92.9017 77.5536 92.8788 77.4722 92.8241C77.3894 92.7684 77.2663 92.6667 77.1545 92.5007L78.8135 91.3838L80.4726 90.2668C80.0233 89.5995 79.3827 89.2816 78.9471 89.1303C78.49 88.9716 78.0305 88.915 77.6495 88.915V90.915ZM78.8135 91.3838L77.1541 92.5001C79.9742 96.6925 83.3863 100.797 87.2919 104.702L88.7061 103.288L90.1203 101.874C86.3793 98.1329 83.1359 94.2261 80.473 90.2675L78.8135 91.3838ZM88.7061 103.288L87.2919 104.702C91.2251 108.635 95.5286 112.199 99.7496 115.011L100.858 113.347L101.967 111.682C97.9869 109.031 93.8857 105.639 90.1203 101.874L88.7061 103.288ZM100.858 113.347L99.7489 115.011C99.4082 114.784 99.2962 114.5 99.2733 114.438C99.2449 114.361 99.2421 114.316 99.2412 114.306L101.233 114.13L103.226 113.954C103.21 113.773 103.166 113.435 103.027 113.057C102.894 112.695 102.602 112.106 101.968 111.683L100.858 113.347ZM101.233 114.13L99.2411 114.304C99.2398 114.29 99.2349 114.242 99.2499 114.159C99.2622 114.091 99.3243 113.792 99.6204 113.509L101.003 114.954L102.386 116.399C102.933 115.875 103.118 115.248 103.186 114.87C103.257 114.477 103.242 114.138 103.226 113.955L101.233 114.13ZM101.003 114.954L99.6204 113.509C90.8041 121.944 81.8793 128.969 74.0174 133.876C70.086 136.33 66.4501 138.235 63.2498 139.523C60.025 140.821 57.3597 141.445 55.3346 141.452L55.3419 143.452L55.3491 145.452C58.0907 145.442 61.2927 144.623 64.7435 143.234C68.2187 141.835 72.0667 139.809 76.1352 137.269C84.2731 132.191 93.4121 124.984 102.386 116.399L101.003 114.954ZM55.3419 143.452L54.2057 141.806C54.1323 141.857 54.0325 141.91 53.8963 141.956L54.5274 143.854L55.1585 145.751C55.6431 145.59 56.0844 145.37 56.478 145.098L55.3419 143.452ZM54.5274 143.854L53.8949 141.956L47.9896 143.925L48.6221 145.822L49.2547 147.72L55.16 145.751L54.5274 143.854ZM48.6221 145.822L47.9887 143.925C47.7972 143.989 47.6779 144 47.628 144V146V148C48.1882 148 48.7388 147.892 49.2556 147.719L48.6221 145.822ZM47.628 146L47.6281 144C47.5924 144 47.6212 143.993 47.6897 144.025C47.7634 144.059 47.8507 144.123 47.9197 144.219L46.2969 145.388L44.6742 146.557C45.4057 147.572 46.5434 148 47.6279 148L47.628 146ZM46.2969 145.388L47.9192 144.218C48.0023 144.333 48.0022 144.414 48.0005 144.385C47.9983 144.35 48.001 144.225 48.0736 144.007L46.1758 143.376L44.2781 142.745C43.8989 143.885 43.804 145.35 44.6747 146.557L46.2969 145.388ZM46.1758 143.376L48.0732 144.009L50.0419 138.103L48.1446 137.471L46.2473 136.838L44.2785 142.743L46.1758 143.376ZM48.1446 137.471L50.0417 138.104C50.0835 137.979 50.1362 137.88 50.1925 137.799L48.5528 136.654L46.913 135.509C46.6417 135.898 46.4136 136.34 46.2475 136.837L48.1446 137.471ZM48.5528 136.654L50.5528 136.662C50.5682 132.553 53.0127 126.164 57.8733 118.304C62.6748 110.54 69.6496 101.631 78.3024 92.5644L76.8555 91.1836L75.4086 89.8028C66.6079 99.0249 59.4489 108.151 54.4713 116.2C49.5527 124.154 46.5726 131.356 46.5528 136.647L48.5528 136.654ZM76.8555 91.1836L78.301 92.5659C78.0864 92.7903 77.8655 92.8682 77.7778 92.8927C77.729 92.9063 77.6943 92.9112 77.6778 92.9131C77.6606 92.915 77.6512 92.915 77.6495 92.915L77.6495 90.915L77.6494 88.915C77.2973 88.9151 76.2213 88.953 75.4101 89.8013L76.8555 91.1836ZM135.769 46V48C136.693 48 137.543 48.3532 138.183 48.9941L139.598 47.5801L141.012 46.166C139.615 44.769 137.745 44 135.769 44V46ZM139.598 47.5801L138.184 48.9944L143.005 53.8147L144.419 52.4004L145.833 50.986L141.012 46.1657L139.598 47.5801ZM144.419 52.4004L143.005 53.8148C143.646 54.4552 143.999 55.3057 143.999 56.2295H145.999H147.999C147.999 54.2527 147.23 52.3823 145.833 50.986L144.419 52.4004ZM145.999 56.2295L143.999 56.2293C143.999 57.1523 143.645 58.0024 143.004 58.6429L144.418 60.0576L145.832 61.4724C147.228 60.077 147.999 58.2072 147.999 56.2297L145.999 56.2295ZM144.418 60.0576L143.004 58.6434L141.153 60.494L142.567 61.9082L143.982 63.3224L145.832 61.4718L144.418 60.0576ZM142.567 61.9082L141.156 63.3251L141.414 63.5819L142.825 62.165L144.237 60.7481L143.979 60.4913L142.567 61.9082ZM142.825 62.165L141.411 63.5795C142.052 64.2199 142.405 65.0702 142.405 65.9941H144.405H146.405C146.405 64.0173 145.636 62.147 144.239 60.7506L142.825 62.165ZM144.405 65.9941L142.405 65.994C142.405 66.9173 142.052 67.7669 141.411 68.4081L142.825 69.8223L144.24 71.2364C145.636 69.8403 146.405 67.9714 146.405 65.9943L144.405 65.9941ZM142.825 69.8223L141.411 68.4081L132.71 77.1092L134.124 78.5234L135.538 79.9377L144.239 71.2365L142.825 69.8223ZM134.124 78.5234L132.71 77.1091C132.145 77.674 131.419 78.0128 130.624 78.0867L130.81 80.0781L130.995 82.0695C132.711 81.9098 134.309 81.1673 135.538 79.9377L134.124 78.5234ZM130.81 80.0781L129.137 78.9823C124.029 86.7803 117.284 95.2498 110.018 103.02L111.479 104.386L112.939 105.752C120.339 97.8393 127.232 89.1906 132.483 81.1739L130.81 80.0781ZM111.479 104.386L110.012 103.026L109.975 103.066L111.441 104.426L112.908 105.785L112.945 105.745L111.479 104.386ZM111.441 104.426L109.976 103.065C109.905 103.141 109.861 103.188 109.817 103.23C109.775 103.27 109.752 103.288 109.745 103.293C109.738 103.297 109.763 103.279 109.818 103.258C109.877 103.236 109.963 103.216 110.065 103.216V105.216V107.216C111.706 107.216 112.735 105.972 112.907 105.786L111.441 104.426ZM110.065 105.216L110.066 103.216C110.238 103.216 110.367 103.27 110.431 103.31L109.377 105.01L108.323 106.71C108.829 107.023 109.422 107.216 110.065 107.216L110.065 105.216ZM109.377 105.01L110.403 103.293C106.429 100.92 102.73 97.952 98.3859 93.6082L96.9717 95.0225L95.5575 96.4367C100.07 100.949 104.027 104.144 108.351 106.727L109.377 105.01ZM96.9717 95.0225L98.3859 93.6082C93.8775 89.1002 91.2713 85.8719 88.974 82.0253L87.2569 83.0508L85.5398 84.0763C88.0563 88.29 90.897 91.7766 95.5576 96.4367L96.9717 95.0225ZM87.2569 83.0508L88.9716 82.0214C88.9273 81.9476 88.9258 81.9215 88.9297 81.9404C88.9348 81.9644 88.9373 82.006 88.9289 82.0495C88.9118 82.1375 88.8907 82.053 89.144 81.8166L87.7794 80.3545L86.4147 78.8924C85.7575 79.5058 85.1934 80.3001 85.0018 81.289C84.8036 82.3127 85.0571 83.2722 85.5422 84.0802L87.2569 83.0508ZM87.7794 80.3545L89.1438 81.8168C97.2513 74.2517 105.538 67.735 113.013 62.8598L111.92 61.1846L110.827 59.5094C103.135 64.5265 94.6684 71.1909 86.4149 78.8922L87.7794 80.3545ZM111.92 61.1846L113.911 61.3707C113.985 60.5782 114.324 59.8533 114.889 59.2882L113.475 57.874L112.06 56.4598C110.832 57.6879 110.089 59.2831 109.929 60.9985L111.92 61.1846ZM113.475 57.874L114.889 59.2882L123.589 50.587L122.175 49.1729L120.761 47.7587L112.06 56.4599L113.475 57.874ZM122.175 49.1729L123.589 50.5869C124.229 49.9466 125.079 49.5938 126.004 49.5938V47.5938V45.5938C124.028 45.5938 122.158 46.3611 120.76 47.7588L122.175 49.1729ZM126.004 47.5938L126.004 49.5937C126.929 49.5938 127.779 49.9466 128.419 50.5868L129.833 49.1729L131.248 47.7589C129.85 46.3609 127.98 45.5938 126.004 45.5938L126.004 47.5938ZM129.833 49.1729L128.416 50.5844L128.673 50.8422L130.09 49.4307L131.507 48.0191L131.25 47.7613L129.833 49.1729ZM130.09 49.4307L131.504 50.8449L133.355 48.9943L131.94 47.5801L130.526 46.1659L128.676 48.0165L130.09 49.4307ZM131.94 47.5801L133.355 48.9938C133.995 48.3532 134.845 48.0001 135.769 48L135.769 46L135.768 44C133.792 44.0001 131.922 44.769 130.526 46.1663L131.94 47.5801Z" fill="white" mask="url(#path-2-inside-1_2393_2)"/>
<defs>
<linearGradient id="paint0_linear_2393_2" x1="96" y1="0" x2="96" y2="192" gradientUnits="userSpaceOnUse">
<stop stop-color="#0866FF"/>
<stop offset="1" stop-color="#0042AD"/>
</linearGradient>
</defs>
</svg>
