<svg width="192" height="192" viewBox="0 0 192 192" fill="none" xmlns="http://www.w3.org/2000/svg">
<rect width="192" height="192" rx="32" fill="#0866FF"/>
<path opacity="0.5" d="M100.22 68.9927C96.4908 68.9927 93.468 72.0156 93.468 75.7445C93.468 79.4734 96.4908 82.4963 100.22 82.4963H127.227C130.956 82.4963 133.979 79.4734 133.979 75.7445C133.979 72.0156 130.956 68.9927 127.227 68.9927H100.22Z" fill="#C6D2FE"/>
<path opacity="0.5" d="M100.22 129.759C96.4908 129.759 93.468 132.782 93.468 136.511C93.468 140.24 96.4908 143.262 100.22 143.262H127.227C130.956 143.262 133.979 140.24 133.979 136.511C133.979 132.782 130.956 129.759 127.227 129.759H100.22Z" fill="#C6D2FE"/>
<path opacity="0.8" d="M100.22 48.7376C96.4908 48.7376 93.468 51.7605 93.468 55.4894C93.468 59.2183 96.4908 62.2412 100.22 62.2412H154.234C157.963 62.2412 160.986 59.2183 160.986 55.4894C160.986 51.7605 157.963 48.7376 154.234 48.7376H100.22Z" fill="#C6D2FE"/>
<path opacity="0.8" d="M100.22 109.504C96.4908 109.504 93.468 112.527 93.468 116.256C93.468 119.985 96.4908 123.007 100.22 123.007H154.234C157.963 123.007 160.986 119.985 160.986 116.256C160.986 112.527 157.963 109.504 154.234 109.504H100.22Z" fill="#C6D2FE"/>
<path d="M38.7518 42C35.0228 42 32 45.0228 32 48.7518V82.5107C32 86.2397 35.0228 89.2625 38.7518 89.2625H72.5105C76.2394 89.2625 79.2623 86.2397 79.2623 82.5107V48.7518C79.2623 45.0228 76.2394 42 72.5105 42H38.7518Z" fill="#EBEFFF"/>
<path d="M38.7518 102.738C35.0228 102.738 32 105.76 32 109.489V143.248C32 146.977 35.0228 150 38.7518 150H72.5105C76.2394 150 79.2623 146.977 79.2623 143.248V109.489C79.2623 105.76 76.2394 102.738 72.5105 102.738H38.7518Z" fill="#EBEFFF"/>
</svg>
