<svg width="192" height="192" viewBox="0 0 192 192" fill="none" xmlns="http://www.w3.org/2000/svg">
<rect width="192" height="192" rx="96" fill="url(#paint0_linear_2296_2)"/>
<path d="M142.927 98.4743C147.31 98.4743 150.795 94.99 150.795 90.6066H150.682V69.7008C150.682 68.6892 150.57 67.6776 150.12 66.6661C149.334 64.7553 147.76 63.1818 145.849 62.395C144.838 62.0578 143.826 61.833 142.815 61.833H121.909C117.525 61.833 114.041 65.3173 114.041 69.7008C114.041 74.0842 117.525 77.5685 121.909 77.5685H123.932L100.216 101.284L88.7518 84.1999C87.5154 82.1768 85.3799 80.9404 83.0195 80.7156C80.6592 80.4909 78.4113 81.2776 76.7253 82.9636L43.2311 116.458C40.1964 119.605 40.1964 124.55 43.2311 127.585C44.6923 129.046 46.7154 129.833 48.7386 129.833C50.7617 129.833 52.6724 129.159 54.246 127.585L80.9964 100.835L92.4609 117.919C93.6972 119.942 95.8328 121.178 98.1931 121.403C100.553 121.628 102.801 120.841 104.487 119.155L135.059 88.5834V90.6066C135.059 94.99 138.544 98.4743 142.927 98.4743Z" fill="#EBEFFF"/>
<defs>
<linearGradient id="paint0_linear_2296_2" x1="96" y1="0" x2="96" y2="192" gradientUnits="userSpaceOnUse">
<stop stop-color="#0866FF"/>
<stop offset="1" stop-color="#0042AD"/>
</linearGradient>
</defs>
</svg>
