<svg width="192" height="192" viewBox="0 0 192 192" fill="none" xmlns="http://www.w3.org/2000/svg">
<path d="M0 96C0 42.9807 42.9807 0 96 0V0C149.019 0 192 42.9807 192 96V96C192 149.019 149.019 192 96 192V192C42.9807 192 0 149.019 0 96V96Z" fill="url(#paint0_linear_2422_2)"/>
<path d="M21.248 35.7598C27.7696 54.1613 36.6956 71.3016 47.5996 87.0938C51.2386 63.9817 70.712 46.2791 94.6113 45.4922C121.5 39.6631 148.749 38.5972 175.756 42.5527C179.367 47.9302 182.449 53.6923 184.926 59.7656C165.652 55.9855 146.217 54.9256 126.87 56.5068C138.082 65.555 145.36 79.1275 145.36 94.5684C145.36 102.83 143.196 110.993 139.164 118.271C130.205 145.72 116.996 170.214 99.6279 191.932C98.4241 191.976 97.2147 192 96 192C90.6539 192 85.41 191.562 80.3018 190.722C93.7603 175.527 104.672 158.701 113.298 140.596C107.889 142.661 102.086 143.842 96.0869 143.842C79.0725 143.842 63.2379 134.892 54.2881 120.435C54.0914 120.238 53.7963 120.139 53.5996 119.942C35.4369 99.8779 21.1357 77.1472 10.7852 51.75C13.7443 46.063 17.2549 40.7087 21.248 35.7598ZM96.0869 60.9326C77.4989 60.9326 62.4513 75.9804 62.4512 94.5684C62.4512 100.568 63.9259 106.174 66.9746 111.484C72.9739 121.811 84.0883 128.303 96.0869 128.303C108.086 128.303 119.297 121.811 125.198 111.484C128.247 106.174 129.82 100.568 129.82 94.5684C129.82 75.9804 114.675 60.9327 96.0869 60.9326Z" fill="#EBEFFF"/>
<defs>
<linearGradient id="paint0_linear_2422_2" x1="96" y1="0" x2="96" y2="192" gradientUnits="userSpaceOnUse">
<stop stop-color="#0866FF"/>
<stop offset="1" stop-color="#0042AD"/>
</linearGradient>
</defs>
</svg>
