<svg width="192" height="192" viewBox="0 0 192 192" fill="none" xmlns="http://www.w3.org/2000/svg">
<rect width="192" height="192" rx="48" fill="url(#paint0_linear_2426_11)"/>
<g opacity="0.5">
<path d="M146.712 111.019C149.192 111.324 151.58 112.146 153.723 113.431H153.911C156.137 102.908 155.34 91.97 151.612 81.8808C151.472 81.3788 151.23 80.9111 150.901 80.5074C150.571 80.1036 150.161 79.7726 149.697 79.5352C149.234 79.2978 148.726 79.1591 148.205 79.128C147.685 79.0969 147.164 79.1739 146.675 79.3543C146.186 79.5347 145.74 79.8145 145.365 80.1761C144.99 80.5376 144.693 80.9731 144.495 81.4549C144.296 81.9367 144.2 82.4545 144.212 82.9755C144.223 83.4964 144.343 84.0093 144.563 84.4818C147.678 92.9676 148.421 102.142 146.712 111.019Z" fill="#EBEFFF"/>
<path d="M129.636 139.818C123.067 145.297 115.179 148.962 106.755 150.447C105.755 150.532 104.83 151.011 104.183 151.778C103.537 152.545 103.221 153.538 103.306 154.537C103.391 155.537 103.869 156.462 104.636 157.109C105.403 157.756 106.396 158.071 107.396 157.986H108.074C118.115 156.215 127.498 151.79 135.252 145.17V144.906C133.035 143.635 131.119 141.899 129.636 139.818Z" fill="#EBEFFF"/>
<path d="M89.2647 150.221C83.5632 149.151 78.0913 147.098 73.0937 144.152C70.9566 142.893 68.9041 141.496 66.9495 139.968C65.5123 142.079 63.6347 143.854 61.446 145.17C63.8938 147.235 66.503 149.101 69.2488 150.749C75.0061 154.14 81.3057 156.512 87.87 157.76H88.5862C89.5859 157.85 90.5805 157.539 91.351 156.896C92.1215 156.253 92.6049 155.33 92.6949 154.33C92.7849 153.33 92.4741 152.336 91.8308 151.565C91.1875 150.795 90.2644 150.311 89.2647 150.221Z" fill="#EBEFFF"/>
<path d="M47.5744 111.81C48.3283 111.81 49.0822 111.697 49.8361 111.471C48.0392 102.583 48.7438 93.3703 51.8716 84.8587C52.2165 83.919 52.174 82.8807 51.7534 81.9723C51.3328 81.0639 50.5685 80.3598 49.6288 80.0149C48.689 79.67 47.6508 79.7126 46.7424 80.1332C45.834 80.5538 45.1299 81.318 44.785 82.2578C41.0513 92.4289 40.3186 103.459 42.6741 114.034C44.1867 113.051 45.8387 112.302 47.5744 111.81Z" fill="#EBEFFF"/>
<path d="M150.632 118.784C149.286 117.927 147.783 117.346 146.21 117.075C144.638 116.803 143.028 116.846 141.472 117.201C139.503 117.726 137.692 118.722 136.195 120.103L121.607 111.66C123.904 105.984 124.116 99.6769 122.205 93.8595C120.293 88.042 116.382 83.0902 111.165 79.883L110.751 79.6192C107.933 78.029 104.836 76.9926 101.629 76.5659V62.2419C104.631 61.3397 107.169 59.3144 108.715 56.5877C110.38 53.7688 110.867 50.407 110.07 47.2315C109.272 44.056 107.255 41.323 104.456 39.6251C103.092 38.8273 101.583 38.3096 100.016 38.1025C98.4499 37.8953 96.8579 38.0029 95.3336 38.4189C93.762 38.8195 92.286 39.5292 90.9916 40.5065C89.6972 41.4837 88.6104 42.709 87.7947 44.1108C86.1765 46.9161 85.7161 50.242 86.5115 53.3814C87.307 56.5208 89.2954 59.2263 92.0542 60.9226C92.9194 61.4878 93.8579 61.9317 94.8436 62.2419V76.5659C91.0465 77.0842 87.4194 78.4688 84.2428 80.6127C81.0662 82.7565 78.4252 85.6022 76.524 88.9298C74.5568 92.3307 73.3917 96.1358 73.1173 100.055C72.8429 103.974 73.4666 107.905 74.9408 111.547L59.863 120.179C59.3342 119.671 58.7671 119.205 58.1667 118.784C56.7864 117.999 55.2646 117.494 53.6886 117.298C52.1127 117.102 50.5136 117.22 48.9831 117.643C47.4527 118.067 46.0209 118.789 44.7701 119.767C43.5193 120.746 42.4739 121.962 41.6941 123.345C40.0658 126.137 39.588 129.453 40.3619 132.591C41.1359 135.729 43.1008 138.442 45.8405 140.157C47.7184 141.287 49.8682 141.887 52.0602 141.891C53.0527 141.898 54.0417 141.771 55.0003 141.514C58.1342 140.705 60.8209 138.69 62.4736 135.907C64.1262 133.124 64.6106 129.801 63.8209 126.662V126.021L78.4464 117.578C80.4067 120.144 82.8215 122.329 85.5707 124.023C90.8406 127.346 97.1796 128.533 103.295 127.343C109.41 126.152 114.84 122.673 118.478 117.615L132.915 125.946C132.235 128.517 132.399 131.238 133.383 133.709C134.367 136.179 136.119 138.268 138.381 139.667C141.121 141.274 144.386 141.729 147.461 140.93C150.535 140.131 153.167 138.145 154.778 135.407C156.349 132.633 156.795 129.361 156.023 126.268C155.251 123.175 153.321 120.496 150.632 118.784Z" fill="#EBEFFF"/>
<path d="M60.73 69.7808C66.1303 63.4015 73.0725 58.5095 80.8967 55.5699C80.1393 53.0425 79.921 50.3843 80.2559 47.7672C70.4542 51.0442 61.7255 56.9198 55.0005 64.7674C54.3356 65.5272 53.9999 66.52 54.067 67.5274C54.1342 68.5347 54.5988 69.4741 55.3586 70.1389C56.1183 70.8038 57.1111 71.1395 58.1185 71.0724C59.1258 71.0052 60.0652 70.5406 60.73 69.7808Z" fill="#EBEFFF"/>
<path d="M123.378 59.3394C128.018 62.1236 132.17 65.651 135.667 69.7809C135.988 70.1571 136.381 70.4662 136.822 70.6907C137.264 70.9151 137.745 71.0504 138.238 71.0889C138.732 71.1274 139.228 71.0684 139.699 70.9151C140.17 70.7618 140.605 70.5173 140.982 70.1955C141.358 69.8737 141.667 69.481 141.891 69.0398C142.116 68.5986 142.251 68.1174 142.29 67.6239C142.328 67.1304 142.269 66.6341 142.116 66.1634C141.963 65.6927 141.718 65.2568 141.396 64.8806C137.371 60.1045 132.581 56.0285 127.223 52.8183C123.709 50.7749 119.996 49.0951 116.141 47.8049C116.519 50.4036 116.326 53.0535 115.575 55.57C118.275 56.612 120.884 57.8727 123.378 59.3394Z" fill="#EBEFFF"/>
</g>
<path d="M144.712 109.019C147.192 109.324 149.58 110.146 151.723 111.431H151.911C154.137 100.908 153.34 89.97 149.612 79.8808C149.472 79.3788 149.23 78.9111 148.901 78.5074C148.571 78.1036 148.161 77.7726 147.697 77.5352C147.234 77.2978 146.726 77.1591 146.205 77.128C145.685 77.0969 145.164 77.1739 144.675 77.3543C144.186 77.5347 143.74 77.8145 143.365 78.1761C142.99 78.5376 142.693 78.9731 142.495 79.4549C142.296 79.9367 142.2 80.4545 142.212 80.9755C142.223 81.4964 142.343 82.0093 142.563 82.4818C145.678 90.9676 146.421 100.142 144.712 109.019Z" fill="#EBEFFF"/>
<path d="M127.636 137.818C121.067 143.297 113.179 146.962 104.755 148.447C103.755 148.532 102.83 149.011 102.183 149.778C101.537 150.545 101.221 151.538 101.306 152.537C101.391 153.537 101.869 154.462 102.636 155.109C103.403 155.756 104.396 156.071 105.396 155.986H106.074C116.115 154.215 125.498 149.79 133.252 143.17V142.906C131.035 141.635 129.119 139.899 127.636 137.818Z" fill="#EBEFFF"/>
<path d="M87.2647 148.221C81.5632 147.151 76.0913 145.098 71.0937 142.152C68.9566 140.893 66.9041 139.496 64.9495 137.968C63.5123 140.079 61.6347 141.854 59.446 143.17C61.8938 145.235 64.503 147.101 67.2488 148.749C73.0061 152.14 79.3057 154.512 85.87 155.76H86.5862C87.5859 155.85 88.5805 155.539 89.351 154.896C90.1215 154.253 90.6049 153.33 90.6949 152.33C90.7849 151.33 90.4741 150.336 89.8308 149.565C89.1875 148.795 88.2644 148.311 87.2647 148.221Z" fill="#EBEFFF"/>
<path d="M45.5744 109.81C46.3283 109.81 47.0822 109.697 47.8361 109.471C46.0392 100.583 46.7438 91.3703 49.8716 82.8587C50.2165 81.919 50.174 80.8807 49.7534 79.9723C49.3328 79.0639 48.5685 78.3598 47.6288 78.0149C46.689 77.67 45.6508 77.7126 44.7424 78.1332C43.834 78.5538 43.1299 79.318 42.785 80.2578C39.0513 90.4289 38.3186 101.459 40.6741 112.034C42.1867 111.051 43.8387 110.302 45.5744 109.81Z" fill="#EBEFFF"/>
<path d="M148.632 116.784C147.286 115.927 145.783 115.346 144.21 115.075C142.638 114.803 141.028 114.846 139.472 115.201C137.503 115.726 135.692 116.722 134.195 118.103L119.607 109.66C121.904 103.984 122.116 97.6769 120.205 91.8595C118.293 86.042 114.382 81.0902 109.165 77.883L108.751 77.6192C105.933 76.029 102.836 74.9926 99.6286 74.5659V60.2419C102.631 59.3397 105.169 57.3144 106.715 54.5877C108.38 51.7688 108.867 48.407 108.07 45.2315C107.272 42.056 105.255 39.323 102.456 37.6251C101.092 36.8273 99.5827 36.3096 98.0163 36.1025C96.4499 35.8953 94.8579 36.0029 93.3336 36.4189C91.762 36.8195 90.286 37.5292 88.9916 38.5065C87.6972 39.4837 86.6104 40.709 85.7947 42.1108C84.1765 44.9161 83.7161 48.242 84.5115 51.3814C85.307 54.5208 87.2954 57.2263 90.0542 58.9226C90.9194 59.4878 91.8579 59.9317 92.8436 60.2419V74.5659C89.0465 75.0842 85.4194 76.4688 82.2428 78.6127C79.0662 80.7565 76.4252 83.6022 74.524 86.9298C72.5568 90.3307 71.3917 94.1358 71.1173 98.0551C70.8429 101.974 71.4666 105.905 72.9408 109.547L57.863 118.179C57.3342 117.671 56.7671 117.205 56.1667 116.784C54.7864 115.999 53.2646 115.494 51.6886 115.298C50.1127 115.102 48.5136 115.22 46.9831 115.643C45.4527 116.067 44.0209 116.789 42.7701 117.767C41.5193 118.746 40.4739 119.962 39.6941 121.345C38.0658 124.137 37.588 127.453 38.3619 130.591C39.1359 133.729 41.1008 136.442 43.8405 138.157C45.7184 139.287 47.8682 139.887 50.0602 139.891C51.0527 139.898 52.0417 139.771 53.0003 139.514C56.1342 138.705 58.8209 136.69 60.4736 133.907C62.1262 131.124 62.6106 127.801 61.8209 124.662V124.021L76.4464 115.578C78.4067 118.144 80.8215 120.329 83.5707 122.023C88.8406 125.346 95.1796 126.533 101.295 125.343C107.41 124.152 112.84 120.673 116.478 115.615L130.915 123.946C130.235 126.517 130.399 129.238 131.383 131.709C132.367 134.179 134.119 136.268 136.381 137.667C139.121 139.274 142.386 139.729 145.461 138.93C148.535 138.131 151.167 136.145 152.778 133.407C154.349 130.633 154.795 127.361 154.023 124.268C153.251 121.175 151.321 118.496 148.632 116.784Z" fill="#EBEFFF"/>
<path d="M58.73 67.7808C64.1303 61.4015 71.0725 56.5095 78.8967 53.5699C78.1393 51.0425 77.921 48.3843 78.2559 45.7672C68.4542 49.0442 59.7255 54.9198 53.0005 62.7674C52.3356 63.5272 51.9999 64.52 52.067 65.5274C52.1342 66.5347 52.5988 67.4741 53.3586 68.1389C54.1183 68.8038 55.1111 69.1395 56.1185 69.0724C57.1258 69.0052 58.0652 68.5406 58.73 67.7808Z" fill="#EBEFFF"/>
<path d="M121.378 57.3394C126.018 60.1236 130.17 63.651 133.667 67.7809C133.988 68.1571 134.381 68.4662 134.822 68.6907C135.264 68.9151 135.745 69.0504 136.238 69.0889C136.732 69.1274 137.228 69.0684 137.699 68.9151C138.17 68.7618 138.605 68.5173 138.982 68.1955C139.358 67.8737 139.667 67.481 139.891 67.0398C140.116 66.5986 140.251 66.1174 140.29 65.6239C140.328 65.1304 140.269 64.6341 140.116 64.1634C139.963 63.6927 139.718 63.2568 139.396 62.8806C135.371 58.1045 130.581 54.0285 125.223 50.8183C121.709 48.7749 117.996 47.0951 114.141 45.8049C114.519 48.4036 114.326 51.0535 113.575 53.57C116.275 54.612 118.884 55.8727 121.378 57.3394Z" fill="#EBEFFF"/>
<defs>
<linearGradient id="paint0_linear_2426_11" x1="96" y1="0" x2="96" y2="192" gradientUnits="userSpaceOnUse">
<stop stop-color="#0866FF"/>
<stop offset="1" stop-color="#0042AD"/>
</linearGradient>
</defs>
</svg>
